<svg height="84" viewBox="0 0 84 84" width="84" xmlns="http://www.w3.org/2000/svg"><g fill="none" fill-rule="evenodd" transform="translate(2 2)"><circle cx="40" cy="40" fill="#090c15" r="40" stroke="#07dee7" stroke-width="4"/><path d="m59.556 52.528c.454-1.763.444-5.827.444-5.827v-14.397s.008-3.96-.432-5.786c-.44-1.828-1.283-3.025-2.21-3.93-.924-.899-2.184-1.712-3.991-2.155-1.807-.441-5.977-.433-5.977-.433l-14.767.005s-4.064-.005-5.938.422c-1.873.427-3.102 1.252-4.03 2.155-.923.9-1.757 2.13-2.21 3.89-.455 1.763-.445 5.827-.445 5.827v14.396s-.008 3.961.432 5.787c.44 1.828 1.283 3.025 2.21 3.93.924.899 2.184 1.712 3.991 2.155 1.807.441 5.977.433 5.977.433l14.767-.005s4.064.005 5.938-.422c1.873-.427 3.102-1.252 4.03-2.155.923-.9 1.757-2.13 2.21-3.89zm-26.021-16.222c1.8 0 3.259-1.422 3.259-3.177s-1.46-3.178-3.26-3.178-3.259 1.423-3.259 3.178 1.46 3.177 3.26 3.177zm0 12.67c1.8 0 3.259-1.423 3.259-3.178s-1.46-3.178-3.26-3.178-3.259 1.423-3.259 3.178 1.46 3.177 3.26 3.177zm16.297-15.847c0 1.755-1.46 3.177-3.26 3.177s-3.26-1.422-3.26-3.177 1.46-3.178 3.26-3.178 3.26 1.423 3.26 3.178zm-3.26 15.846c1.8 0 3.26-1.422 3.26-3.177s-1.46-3.178-3.26-3.178-3.26 1.423-3.26 3.178 1.46 3.177 3.26 3.177z" fill="#fff"/></g></svg>