<svg xmlns="http://www.w3.org/2000/svg" width="14" height="14" viewBox="0 0 14 14">
    <g fill="none" fill-rule="nonzero">
        <path fill="#F7931A" d="M5.306 13.79A6.998 6.998 0 0 1 .21 5.307a6.998 6.998 0 1 1 5.096 8.483z"/>
        <path fill="#FFF" d="M9.937 6.309c.137-.917-.562-1.41-1.516-1.74l.31-1.242-.757-.188-.301 1.21c-.2-.05-.403-.097-.606-.143l.303-1.218-.755-.188-.31 1.242a25.298 25.298 0 0 1-.483-.114v-.003l-1.042-.26-.201.807s.56.128.549.136c.306.077.362.28.352.44l-.353 1.415a.626.626 0 0 1 .08.026l-.08-.02-.495 1.982c-.038.094-.133.233-.347.18.008.011-.55-.137-.55-.137l-.375.866.984.245c.183.046.363.094.54.139l-.314 1.257.756.188.31-1.243c.206.056.406.108.602.156L5.93 11.34l.757.188.312-1.254c1.29.244 2.26.145 2.668-1.02.329-.94-.017-1.482-.695-1.835.494-.114.866-.439.966-1.11zM8.209 8.732c-.234.939-1.815.431-2.328.304l.416-1.665c.512.128 2.156.381 1.912 1.36zm.234-2.437c-.214.854-1.53.42-1.956.314l.376-1.51c.427.107 1.802.305 1.58 1.196z"/>
    </g>
</svg>
