<svg xmlns="http://www.w3.org/2000/svg" xmlns:xlink="http://www.w3.org/1999/xlink" width="110" height="110" viewBox="0 0 110 110">
    <defs>
        <rect id="a" width="110" height="110" rx="55"/>
        <filter id="c" width="193.8%" height="333.3%" x="-46.9%" y="-108.3%" filterUnits="objectBoundingBox">
            <feOffset dy="1" in="SourceAlpha" result="shadowOffsetOuter1"/>
            <feGaussianBlur in="shadowOffsetOuter1" result="shadowBlurOuter1" stdDeviation="1"/>
            <feColorMatrix in="shadowBlurOuter1" result="shadowMatrixOuter1" values="0 0 0 0 0 0 0 0 0 0 0 0 0 0 0 0 0 0 0.249433877 0"/>
            <feMerge>
                <feMergeNode in="shadowMatrixOuter1"/>
                <feMergeNode in="SourceGraphic"/>
            </feMerge>
        </filter>
        <path id="d" d="M.171 2.011h1.92c1.38-.411 3.388-.67 5.622-.67s4.241.259 5.622.67h1.92v1.34c0 1.111-3.377 2.012-7.542 2.012S.17 4.463.17 3.352v-1.34z"/>
        <filter id="e" width="119.9%" height="174.6%" x="-9.9%" y="-37.3%" filterUnits="objectBoundingBox">
            <feOffset in="SourceAlpha" result="shadowOffsetOuter1"/>
            <feGaussianBlur in="shadowOffsetOuter1" result="shadowBlurOuter1" stdDeviation=".5"/>
            <feColorMatrix in="shadowBlurOuter1" values="0 0 0 0 0 0 0 0 0 0 0 0 0 0 0 0 0 0 0.0979110054 0"/>
        </filter>
        <path id="f" d="M.168 2.011h1.92c1.38-.411 3.387-.67 5.621-.67 2.234 0 4.241.259 5.622.67h1.92v1.34c0 1.111-3.377 2.012-7.542 2.012S.168 4.463.168 3.352v-1.34z"/>
        <filter id="g" width="119.9%" height="174.6%" x="-9.9%" y="-37.3%" filterUnits="objectBoundingBox">
            <feOffset in="SourceAlpha" result="shadowOffsetOuter1"/>
            <feGaussianBlur in="shadowOffsetOuter1" result="shadowBlurOuter1" stdDeviation=".5"/>
            <feColorMatrix in="shadowBlurOuter1" values="0 0 0 0 0 0 0 0 0 0 0 0 0 0 0 0 0 0 0.0979110054 0"/>
        </filter>
        <path id="h" d="M.168 2.011h1.92c1.38-.411 3.387-.67 5.621-.67 2.234 0 4.241.259 5.622.67h1.92v1.34c0 1.111-3.377 2.012-7.542 2.012S.168 4.463.168 3.352v-1.34z"/>
        <filter id="i" width="119.9%" height="174.6%" x="-9.9%" y="-37.3%" filterUnits="objectBoundingBox">
            <feOffset in="SourceAlpha" result="shadowOffsetOuter1"/>
            <feGaussianBlur in="shadowOffsetOuter1" result="shadowBlurOuter1" stdDeviation=".5"/>
            <feColorMatrix in="shadowBlurOuter1" values="0 0 0 0 0 0 0 0 0 0 0 0 0 0 0 0 0 0 0.0979110054 0"/>
        </filter>
        <path id="j" d="M.168 2.011h1.92c1.38-.411 3.387-.67 5.621-.67 2.234 0 4.241.259 5.622.67h1.92v1.34c0 1.111-3.377 2.012-7.542 2.012S.168 4.463.168 3.352v-1.34z"/>
        <filter id="k" width="119.9%" height="174.6%" x="-9.9%" y="-37.3%" filterUnits="objectBoundingBox">
            <feOffset in="SourceAlpha" result="shadowOffsetOuter1"/>
            <feGaussianBlur in="shadowOffsetOuter1" result="shadowBlurOuter1" stdDeviation=".5"/>
            <feColorMatrix in="shadowBlurOuter1" values="0 0 0 0 0 0 0 0 0 0 0 0 0 0 0 0 0 0 0.0979110054 0"/>
        </filter>
        <path id="l" d="M.168 2.011h1.92c1.38-.411 3.387-.67 5.621-.67 2.234 0 4.241.259 5.622.67h1.92v1.34c0 1.111-3.377 2.012-7.542 2.012S.168 4.463.168 3.352v-1.34z"/>
        <filter id="m" width="119.9%" height="174.6%" x="-9.9%" y="-37.3%" filterUnits="objectBoundingBox">
            <feOffset in="SourceAlpha" result="shadowOffsetOuter1"/>
            <feGaussianBlur in="shadowOffsetOuter1" result="shadowBlurOuter1" stdDeviation=".5"/>
            <feColorMatrix in="shadowBlurOuter1" values="0 0 0 0 0 0 0 0 0 0 0 0 0 0 0 0 0 0 0.0979110054 0"/>
        </filter>
        <path id="n" d="M.168 2.011h1.92c1.38-.411 3.387-.67 5.621-.67 2.234 0 4.241.259 5.622.67h1.92v1.34c0 1.111-3.377 2.012-7.542 2.012S.168 4.463.168 3.352v-1.34z"/>
        <filter id="o" width="119.9%" height="174.6%" x="-9.9%" y="-37.3%" filterUnits="objectBoundingBox">
            <feOffset in="SourceAlpha" result="shadowOffsetOuter1"/>
            <feGaussianBlur in="shadowOffsetOuter1" result="shadowBlurOuter1" stdDeviation=".5"/>
            <feColorMatrix in="shadowBlurOuter1" values="0 0 0 0 0 0 0 0 0 0 0 0 0 0 0 0 0 0 0.0979110054 0"/>
        </filter>
        <filter id="p" width="193.8%" height="333.3%" x="-46.9%" y="-108.3%" filterUnits="objectBoundingBox">
            <feOffset dy="1" in="SourceAlpha" result="shadowOffsetOuter1"/>
            <feGaussianBlur in="shadowOffsetOuter1" result="shadowBlurOuter1" stdDeviation="1"/>
            <feColorMatrix in="shadowBlurOuter1" result="shadowMatrixOuter1" values="0 0 0 0 0 0 0 0 0 0 0 0 0 0 0 0 0 0 0.249433877 0"/>
            <feMerge>
                <feMergeNode in="shadowMatrixOuter1"/>
                <feMergeNode in="SourceGraphic"/>
            </feMerge>
        </filter>
        <path id="q" d="M.171 2.011h1.92c1.38-.411 3.388-.67 5.622-.67s4.241.259 5.622.67h1.92v1.34c0 1.111-3.377 2.012-7.542 2.012S.17 4.463.17 3.352v-1.34z"/>
        <filter id="r" width="119.9%" height="174.6%" x="-9.9%" y="-37.3%" filterUnits="objectBoundingBox">
            <feOffset in="SourceAlpha" result="shadowOffsetOuter1"/>
            <feGaussianBlur in="shadowOffsetOuter1" result="shadowBlurOuter1" stdDeviation=".5"/>
            <feColorMatrix in="shadowBlurOuter1" values="0 0 0 0 0 0 0 0 0 0 0 0 0 0 0 0 0 0 0.0979110054 0"/>
        </filter>
        <path id="s" d="M.168 2.011h1.92c1.38-.411 3.387-.67 5.621-.67 2.234 0 4.241.259 5.622.67h1.92v1.34c0 1.111-3.377 2.012-7.542 2.012S.168 4.463.168 3.352v-1.34z"/>
        <filter id="t" width="119.9%" height="174.6%" x="-9.9%" y="-37.3%" filterUnits="objectBoundingBox">
            <feOffset in="SourceAlpha" result="shadowOffsetOuter1"/>
            <feGaussianBlur in="shadowOffsetOuter1" result="shadowBlurOuter1" stdDeviation=".5"/>
            <feColorMatrix in="shadowBlurOuter1" values="0 0 0 0 0 0 0 0 0 0 0 0 0 0 0 0 0 0 0.0979110054 0"/>
        </filter>
        <path id="u" d="M.168 2.011h1.92c1.38-.411 3.387-.67 5.621-.67 2.234 0 4.241.259 5.622.67h1.92v1.34c0 1.111-3.377 2.012-7.542 2.012S.168 4.463.168 3.352v-1.34z"/>
        <filter id="v" width="119.9%" height="174.6%" x="-9.9%" y="-37.3%" filterUnits="objectBoundingBox">
            <feOffset in="SourceAlpha" result="shadowOffsetOuter1"/>
            <feGaussianBlur in="shadowOffsetOuter1" result="shadowBlurOuter1" stdDeviation=".5"/>
            <feColorMatrix in="shadowBlurOuter1" values="0 0 0 0 0 0 0 0 0 0 0 0 0 0 0 0 0 0 0.0979110054 0"/>
        </filter>
        <path id="w" d="M.168 2.011h1.92c1.38-.411 3.387-.67 5.621-.67 2.234 0 4.241.259 5.622.67h1.92v1.34c0 1.111-3.377 2.012-7.542 2.012S.168 4.463.168 3.352v-1.34z"/>
        <filter id="x" width="119.9%" height="174.6%" x="-9.9%" y="-37.3%" filterUnits="objectBoundingBox">
            <feOffset in="SourceAlpha" result="shadowOffsetOuter1"/>
            <feGaussianBlur in="shadowOffsetOuter1" result="shadowBlurOuter1" stdDeviation=".5"/>
            <feColorMatrix in="shadowBlurOuter1" values="0 0 0 0 0 0 0 0 0 0 0 0 0 0 0 0 0 0 0.0979110054 0"/>
        </filter>
        <path id="y" d="M.168 2.011h1.92c1.38-.411 3.387-.67 5.621-.67 2.234 0 4.241.259 5.622.67h1.92v1.34c0 1.111-3.377 2.012-7.542 2.012S.168 4.463.168 3.352v-1.34z"/>
        <filter id="z" width="119.9%" height="174.6%" x="-9.9%" y="-37.3%" filterUnits="objectBoundingBox">
            <feOffset in="SourceAlpha" result="shadowOffsetOuter1"/>
            <feGaussianBlur in="shadowOffsetOuter1" result="shadowBlurOuter1" stdDeviation=".5"/>
            <feColorMatrix in="shadowBlurOuter1" values="0 0 0 0 0 0 0 0 0 0 0 0 0 0 0 0 0 0 0.0979110054 0"/>
        </filter>
        <path id="A" d="M.168 2.011h1.92c1.38-.411 3.387-.67 5.621-.67 2.234 0 4.241.259 5.622.67h1.92v1.34c0 1.111-3.377 2.012-7.542 2.012S.168 4.463.168 3.352v-1.34z"/>
        <filter id="B" width="119.9%" height="174.6%" x="-9.9%" y="-37.3%" filterUnits="objectBoundingBox">
            <feOffset in="SourceAlpha" result="shadowOffsetOuter1"/>
            <feGaussianBlur in="shadowOffsetOuter1" result="shadowBlurOuter1" stdDeviation=".5"/>
            <feColorMatrix in="shadowBlurOuter1" values="0 0 0 0 0 0 0 0 0 0 0 0 0 0 0 0 0 0 0.0979110054 0"/>
        </filter>
        <path id="C" d="M.168 2.011h1.92c1.38-.411 3.387-.67 5.621-.67 2.234 0 4.241.259 5.622.67h1.92v1.34c0 1.111-3.377 2.012-7.542 2.012S.168 4.463.168 3.352v-1.34z"/>
        <filter id="D" width="119.9%" height="174.6%" x="-9.9%" y="-37.3%" filterUnits="objectBoundingBox">
            <feOffset in="SourceAlpha" result="shadowOffsetOuter1"/>
            <feGaussianBlur in="shadowOffsetOuter1" result="shadowBlurOuter1" stdDeviation=".5"/>
            <feColorMatrix in="shadowBlurOuter1" values="0 0 0 0 0 0 0 0 0 0 0 0 0 0 0 0 0 0 0.0979110054 0"/>
        </filter>
        <filter id="E" width="193.8%" height="333.3%" x="-46.9%" y="-108.3%" filterUnits="objectBoundingBox">
            <feOffset dy="1" in="SourceAlpha" result="shadowOffsetOuter1"/>
            <feGaussianBlur in="shadowOffsetOuter1" result="shadowBlurOuter1" stdDeviation="1"/>
            <feColorMatrix in="shadowBlurOuter1" result="shadowMatrixOuter1" values="0 0 0 0 0 0 0 0 0 0 0 0 0 0 0 0 0 0 0.249433877 0"/>
            <feMerge>
                <feMergeNode in="shadowMatrixOuter1"/>
                <feMergeNode in="SourceGraphic"/>
            </feMerge>
        </filter>
        <path id="F" d="M.171 2.011h1.92c1.38-.411 3.388-.67 5.622-.67s4.241.259 5.622.67h1.92v1.34c0 1.111-3.377 2.012-7.542 2.012S.17 4.463.17 3.352v-1.34z"/>
        <filter id="G" width="119.9%" height="174.6%" x="-9.9%" y="-37.3%" filterUnits="objectBoundingBox">
            <feOffset in="SourceAlpha" result="shadowOffsetOuter1"/>
            <feGaussianBlur in="shadowOffsetOuter1" result="shadowBlurOuter1" stdDeviation=".5"/>
            <feColorMatrix in="shadowBlurOuter1" values="0 0 0 0 0 0 0 0 0 0 0 0 0 0 0 0 0 0 0.0979110054 0"/>
        </filter>
        <path id="H" d="M.168 2.011h1.92c1.38-.411 3.387-.67 5.621-.67 2.234 0 4.241.259 5.622.67h1.92v1.34c0 1.111-3.377 2.012-7.542 2.012S.168 4.463.168 3.352v-1.34z"/>
        <filter id="I" width="119.9%" height="174.6%" x="-9.9%" y="-37.3%" filterUnits="objectBoundingBox">
            <feOffset in="SourceAlpha" result="shadowOffsetOuter1"/>
            <feGaussianBlur in="shadowOffsetOuter1" result="shadowBlurOuter1" stdDeviation=".5"/>
            <feColorMatrix in="shadowBlurOuter1" values="0 0 0 0 0 0 0 0 0 0 0 0 0 0 0 0 0 0 0.0979110054 0"/>
        </filter>
        <path id="J" d="M.168 2.011h1.92c1.38-.411 3.387-.67 5.621-.67 2.234 0 4.241.259 5.622.67h1.92v1.34c0 1.111-3.377 2.012-7.542 2.012S.168 4.463.168 3.352v-1.34z"/>
        <filter id="K" width="119.9%" height="174.6%" x="-9.9%" y="-37.3%" filterUnits="objectBoundingBox">
            <feOffset in="SourceAlpha" result="shadowOffsetOuter1"/>
            <feGaussianBlur in="shadowOffsetOuter1" result="shadowBlurOuter1" stdDeviation=".5"/>
            <feColorMatrix in="shadowBlurOuter1" values="0 0 0 0 0 0 0 0 0 0 0 0 0 0 0 0 0 0 0.0979110054 0"/>
        </filter>
        <path id="L" d="M.168 2.011h1.92c1.38-.411 3.387-.67 5.621-.67 2.234 0 4.241.259 5.622.67h1.92v1.34c0 1.111-3.377 2.012-7.542 2.012S.168 4.463.168 3.352v-1.34z"/>
        <filter id="M" width="119.9%" height="174.6%" x="-9.9%" y="-37.3%" filterUnits="objectBoundingBox">
            <feOffset in="SourceAlpha" result="shadowOffsetOuter1"/>
            <feGaussianBlur in="shadowOffsetOuter1" result="shadowBlurOuter1" stdDeviation=".5"/>
            <feColorMatrix in="shadowBlurOuter1" values="0 0 0 0 0 0 0 0 0 0 0 0 0 0 0 0 0 0 0.0979110054 0"/>
        </filter>
        <path id="N" d="M.168 2.011h1.92c1.38-.411 3.387-.67 5.621-.67 2.234 0 4.241.259 5.622.67h1.92v1.34c0 1.111-3.377 2.012-7.542 2.012S.168 4.463.168 3.352v-1.34z"/>
        <filter id="O" width="119.9%" height="174.6%" x="-9.9%" y="-37.3%" filterUnits="objectBoundingBox">
            <feOffset in="SourceAlpha" result="shadowOffsetOuter1"/>
            <feGaussianBlur in="shadowOffsetOuter1" result="shadowBlurOuter1" stdDeviation=".5"/>
            <feColorMatrix in="shadowBlurOuter1" values="0 0 0 0 0 0 0 0 0 0 0 0 0 0 0 0 0 0 0.0979110054 0"/>
        </filter>
        <filter id="P" width="180%" height="260%" x="-40%" y="-80%" filterUnits="objectBoundingBox">
            <feOffset dy="1" in="SourceAlpha" result="shadowOffsetOuter1"/>
            <feGaussianBlur in="shadowOffsetOuter1" result="shadowBlurOuter1" stdDeviation=".5"/>
            <feColorMatrix in="shadowBlurOuter1" result="shadowMatrixOuter1" values="0 0 0 0 0 0 0 0 0 0 0 0 0 0 0 0 0 0 0.251500226 0"/>
            <feMerge>
                <feMergeNode in="shadowMatrixOuter1"/>
                <feMergeNode in="SourceGraphic"/>
            </feMerge>
        </filter>
        <filter id="Q" width="180%" height="260%" x="-40%" y="-80%" filterUnits="objectBoundingBox">
            <feOffset dy="1" in="SourceAlpha" result="shadowOffsetOuter1"/>
            <feGaussianBlur in="shadowOffsetOuter1" result="shadowBlurOuter1" stdDeviation=".5"/>
            <feColorMatrix in="shadowBlurOuter1" result="shadowMatrixOuter1" values="0 0 0 0 0 0 0 0 0 0 0 0 0 0 0 0 0 0 0.251500226 0"/>
            <feMerge>
                <feMergeNode in="shadowMatrixOuter1"/>
                <feMergeNode in="SourceGraphic"/>
            </feMerge>
        </filter>
        <filter id="R" width="188.9%" height="260%" x="-44.4%" y="-80%" filterUnits="objectBoundingBox">
            <feOffset dy="1" in="SourceAlpha" result="shadowOffsetOuter1"/>
            <feGaussianBlur in="shadowOffsetOuter1" result="shadowBlurOuter1" stdDeviation=".5"/>
            <feColorMatrix in="shadowBlurOuter1" result="shadowMatrixOuter1" values="0 0 0 0 0 0 0 0 0 0 0 0 0 0 0 0 0 0 0.251500226 0"/>
            <feMerge>
                <feMergeNode in="shadowMatrixOuter1"/>
                <feMergeNode in="SourceGraphic"/>
            </feMerge>
        </filter>
        <filter id="S" width="188.9%" height="260%" x="-44.4%" y="-80%" filterUnits="objectBoundingBox">
            <feOffset dy="1" in="SourceAlpha" result="shadowOffsetOuter1"/>
            <feGaussianBlur in="shadowOffsetOuter1" result="shadowBlurOuter1" stdDeviation=".5"/>
            <feColorMatrix in="shadowBlurOuter1" result="shadowMatrixOuter1" values="0 0 0 0 0 0 0 0 0 0 0 0 0 0 0 0 0 0 0.251500226 0"/>
            <feMerge>
                <feMergeNode in="shadowMatrixOuter1"/>
                <feMergeNode in="SourceGraphic"/>
            </feMerge>
        </filter>
    </defs>
    <g fill="none" fill-rule="evenodd">
        <mask id="b" fill="#fff">
            <use xlink:href="#a"/>
        </mask>
        <use fill="#07DEE7" xlink:href="#a"/>
        <g mask="url(#b)">
            <g filter="url(#c)" transform="translate(25.792 30.497)">
                <use fill="#000" filter="url(#e)" xlink:href="#d"/>
                <use fill="#E4A51C" xlink:href="#d"/>
                <ellipse cx="7.713" cy="2.011" fill="#FFD400" rx="7.542" ry="2.011"/>
                <path fill="#E4A51C" d="M7.713 3.687c3.517 0 6.368-.75 6.368-1.676 0-.925-2.85-1.676-6.368-1.676-3.517 0-6.368.75-6.368 1.676 0 .926 2.85 1.676 6.368 1.676zm0-.168c3.24 0 5.866-.675 5.866-1.508S10.952.503 7.713.503c-3.24 0-5.866.675-5.866 1.508S4.473 3.52 7.713 3.52z"/>
            </g>
            <g transform="translate(24.455 28.654)">
                <use fill="#000" filter="url(#g)" xlink:href="#f"/>
                <use fill="#E4A51C" xlink:href="#f"/>
                <ellipse cx="7.709" cy="2.011" fill="#FFD400" rx="7.542" ry="2.011"/>
                <path fill="#E4A51C" d="M7.71 3.687c3.516 0 6.367-.75 6.367-1.676 0-.925-2.85-1.676-6.368-1.676-3.517 0-6.368.75-6.368 1.676 0 .926 2.85 1.676 6.368 1.676zm0-.168c3.239 0 5.865-.675 5.865-1.508S10.949.503 7.709.503c-3.24 0-5.866.675-5.866 1.508S4.47 3.52 7.71 3.52z"/>
            </g>
            <g transform="translate(25.628 27.145)">
                <use fill="#000" filter="url(#i)" xlink:href="#h"/>
                <use fill="#E4A51C" xlink:href="#h"/>
                <ellipse cx="7.709" cy="2.011" fill="#FFD400" rx="7.542" ry="2.011"/>
                <path fill="#E4A51C" d="M7.71 3.687c3.516 0 6.367-.75 6.367-1.676 0-.925-2.85-1.676-6.368-1.676-3.517 0-6.368.75-6.368 1.676 0 .926 2.85 1.676 6.368 1.676zm0-.168c3.239 0 5.865-.675 5.865-1.508S10.949.503 7.709.503c-3.24 0-5.866.675-5.866 1.508S4.47 3.52 7.71 3.52z"/>
            </g>
            <g transform="translate(26.13 25.47)">
                <use fill="#000" filter="url(#k)" xlink:href="#j"/>
                <use fill="#E4A51C" xlink:href="#j"/>
                <ellipse cx="7.709" cy="2.011" fill="#FFD400" rx="7.542" ry="2.011"/>
                <path fill="#E4A51C" d="M7.71 3.687c3.516 0 6.367-.75 6.367-1.676 0-.925-2.85-1.676-6.368-1.676-3.517 0-6.368.75-6.368 1.676 0 .926 2.85 1.676 6.368 1.676zm0-.168c3.239 0 5.865-.675 5.865-1.508S10.949.503 7.709.503c-3.24 0-5.866.675-5.866 1.508S4.47 3.52 7.71 3.52z"/>
            </g>
            <g transform="translate(24.79 23.961)">
                <use fill="#000" filter="url(#m)" xlink:href="#l"/>
                <use fill="#E4A51C" xlink:href="#l"/>
                <ellipse cx="7.709" cy="2.011" fill="#FFD400" rx="7.542" ry="2.011"/>
                <path fill="#E4A51C" d="M7.71 3.687c3.516 0 6.367-.75 6.367-1.676 0-.925-2.85-1.676-6.368-1.676-3.517 0-6.368.75-6.368 1.676 0 .926 2.85 1.676 6.368 1.676zm0-.168c3.239 0 5.865-.675 5.865-1.508S10.949.503 7.709.503c-3.24 0-5.866.675-5.866 1.508S4.47 3.52 7.71 3.52z"/>
            </g>
            <g transform="translate(25.46 22.118)">
                <use fill="#000" filter="url(#o)" xlink:href="#n"/>
                <use fill="#E4A51C" xlink:href="#n"/>
                <ellipse cx="7.709" cy="2.011" fill="#FFD400" rx="7.542" ry="2.011"/>
                <path fill="#E4A51C" d="M7.71 3.687c3.516 0 6.367-.75 6.367-1.676 0-.925-2.85-1.676-6.368-1.676-3.517 0-6.368.75-6.368 1.676 0 .926 2.85 1.676 6.368 1.676zm0-.168c3.239 0 5.865-.675 5.865-1.508S10.949.503 7.709.503c-3.24 0-5.866.675-5.866 1.508S4.47 3.52 7.71 3.52z"/>
            </g>
            <g filter="url(#p)" transform="translate(37.792 26.897)">
                <use fill="#000" filter="url(#r)" xlink:href="#q"/>
                <use fill="#E4A51C" xlink:href="#q"/>
                <ellipse cx="7.713" cy="2.011" fill="#FFD400" rx="7.542" ry="2.011"/>
                <path fill="#E4A51C" d="M7.713 3.687c3.517 0 6.368-.75 6.368-1.676 0-.925-2.85-1.676-6.368-1.676-3.517 0-6.368.75-6.368 1.676 0 .926 2.85 1.676 6.368 1.676zm0-.168c3.24 0 5.866-.675 5.866-1.508S10.952.503 7.713.503c-3.24 0-5.866.675-5.866 1.508S4.473 3.52 7.713 3.52z"/>
            </g>
            <g transform="translate(36.455 25.054)">
                <use fill="#000" filter="url(#t)" xlink:href="#s"/>
                <use fill="#E4A51C" xlink:href="#s"/>
                <ellipse cx="7.709" cy="2.011" fill="#FFD400" rx="7.542" ry="2.011"/>
                <path fill="#E4A51C" d="M7.71 3.687c3.516 0 6.367-.75 6.367-1.676 0-.925-2.85-1.676-6.368-1.676-3.517 0-6.368.75-6.368 1.676 0 .926 2.85 1.676 6.368 1.676zm0-.168c3.239 0 5.865-.675 5.865-1.508S10.949.503 7.709.503c-3.24 0-5.866.675-5.866 1.508S4.47 3.52 7.71 3.52z"/>
            </g>
            <g transform="translate(37.628 23.545)">
                <use fill="#000" filter="url(#v)" xlink:href="#u"/>
                <use fill="#E4A51C" xlink:href="#u"/>
                <ellipse cx="7.709" cy="2.011" fill="#FFD400" rx="7.542" ry="2.011"/>
                <path fill="#E4A51C" d="M7.71 3.687c3.516 0 6.367-.75 6.367-1.676 0-.925-2.85-1.676-6.368-1.676-3.517 0-6.368.75-6.368 1.676 0 .926 2.85 1.676 6.368 1.676zm0-.168c3.239 0 5.865-.675 5.865-1.508S10.949.503 7.709.503c-3.24 0-5.866.675-5.866 1.508S4.47 3.52 7.71 3.52z"/>
            </g>
            <g transform="translate(38.13 21.87)">
                <use fill="#000" filter="url(#x)" xlink:href="#w"/>
                <use fill="#E4A51C" xlink:href="#w"/>
                <ellipse cx="7.709" cy="2.011" fill="#FFD400" rx="7.542" ry="2.011"/>
                <path fill="#E4A51C" d="M7.71 3.687c3.516 0 6.367-.75 6.367-1.676 0-.925-2.85-1.676-6.368-1.676-3.517 0-6.368.75-6.368 1.676 0 .926 2.85 1.676 6.368 1.676zm0-.168c3.239 0 5.865-.675 5.865-1.508S10.949.503 7.709.503c-3.24 0-5.866.675-5.866 1.508S4.47 3.52 7.71 3.52z"/>
            </g>
            <g transform="translate(36.79 20.361)">
                <use fill="#000" filter="url(#z)" xlink:href="#y"/>
                <use fill="#E4A51C" xlink:href="#y"/>
                <ellipse cx="7.709" cy="2.011" fill="#FFD400" rx="7.542" ry="2.011"/>
                <path fill="#E4A51C" d="M7.71 3.687c3.516 0 6.367-.75 6.367-1.676 0-.925-2.85-1.676-6.368-1.676-3.517 0-6.368.75-6.368 1.676 0 .926 2.85 1.676 6.368 1.676zm0-.168c3.239 0 5.865-.675 5.865-1.508S10.949.503 7.709.503c-3.24 0-5.866.675-5.866 1.508S4.47 3.52 7.71 3.52z"/>
            </g>
            <g transform="translate(37.46 18.518)">
                <use fill="#000" filter="url(#B)" xlink:href="#A"/>
                <use fill="#E4A51C" xlink:href="#A"/>
                <ellipse cx="7.709" cy="2.011" fill="#FFD400" rx="7.542" ry="2.011"/>
                <path fill="#E4A51C" d="M7.71 3.687c3.516 0 6.367-.75 6.367-1.676 0-.925-2.85-1.676-6.368-1.676-3.517 0-6.368.75-6.368 1.676 0 .926 2.85 1.676 6.368 1.676zm0-.168c3.239 0 5.865-.675 5.865-1.508S10.949.503 7.709.503c-3.24 0-5.866.675-5.866 1.508S4.47 3.52 7.71 3.52z"/>
            </g>
            <g transform="translate(36.958 16.674)">
                <use fill="#000" filter="url(#D)" xlink:href="#C"/>
                <use fill="#E4A51C" xlink:href="#C"/>
                <ellipse cx="7.709" cy="2.011" fill="#FFD400" rx="7.542" ry="2.011"/>
                <path fill="#E4A51C" d="M7.71 3.687c3.516 0 6.367-.75 6.367-1.676 0-.925-2.85-1.676-6.368-1.676-3.517 0-6.368.75-6.368 1.676 0 .926 2.85 1.676 6.368 1.676zm0-.168c3.239 0 5.865-.675 5.865-1.508S10.949.503 7.709.503c-3.24 0-5.866.675-5.866 1.508S4.47 3.52 7.71 3.52z"/>
            </g>
            <g>
                <g filter="url(#E)" transform="translate(32.992 36.497)">
                    <use fill="#000" filter="url(#G)" xlink:href="#F"/>
                    <use fill="#E4A51C" xlink:href="#F"/>
                    <ellipse cx="7.713" cy="2.011" fill="#FFD400" rx="7.542" ry="2.011"/>
                    <path fill="#E4A51C" d="M7.713 3.687c3.517 0 6.368-.75 6.368-1.676 0-.925-2.85-1.676-6.368-1.676-3.517 0-6.368.75-6.368 1.676 0 .926 2.85 1.676 6.368 1.676zm0-.168c3.24 0 5.866-.675 5.866-1.508S10.952.503 7.713.503c-3.24 0-5.866.675-5.866 1.508S4.473 3.52 7.713 3.52z"/>
                </g>
                <g transform="translate(31.655 34.654)">
                    <use fill="#000" filter="url(#I)" xlink:href="#H"/>
                    <use fill="#E4A51C" xlink:href="#H"/>
                    <ellipse cx="7.709" cy="2.011" fill="#FFD400" rx="7.542" ry="2.011"/>
                    <path fill="#E4A51C" d="M7.71 3.687c3.516 0 6.367-.75 6.367-1.676 0-.925-2.85-1.676-6.368-1.676-3.517 0-6.368.75-6.368 1.676 0 .926 2.85 1.676 6.368 1.676zm0-.168c3.239 0 5.865-.675 5.865-1.508S10.949.503 7.709.503c-3.24 0-5.866.675-5.866 1.508S4.47 3.52 7.71 3.52z"/>
                </g>
                <g transform="translate(32.828 33.145)">
                    <use fill="#000" filter="url(#K)" xlink:href="#J"/>
                    <use fill="#E4A51C" xlink:href="#J"/>
                    <ellipse cx="7.709" cy="2.011" fill="#FFD400" rx="7.542" ry="2.011"/>
                    <path fill="#E4A51C" d="M7.71 3.687c3.516 0 6.367-.75 6.367-1.676 0-.925-2.85-1.676-6.368-1.676-3.517 0-6.368.75-6.368 1.676 0 .926 2.85 1.676 6.368 1.676zm0-.168c3.239 0 5.865-.675 5.865-1.508S10.949.503 7.709.503c-3.24 0-5.866.675-5.866 1.508S4.47 3.52 7.71 3.52z"/>
                </g>
                <g transform="translate(33.33 31.47)">
                    <use fill="#000" filter="url(#M)" xlink:href="#L"/>
                    <use fill="#E4A51C" xlink:href="#L"/>
                    <ellipse cx="7.709" cy="2.011" fill="#FFD400" rx="7.542" ry="2.011"/>
                    <path fill="#E4A51C" d="M7.71 3.687c3.516 0 6.367-.75 6.367-1.676 0-.925-2.85-1.676-6.368-1.676-3.517 0-6.368.75-6.368 1.676 0 .926 2.85 1.676 6.368 1.676zm0-.168c3.239 0 5.865-.675 5.865-1.508S10.949.503 7.709.503c-3.24 0-5.866.675-5.866 1.508S4.47 3.52 7.71 3.52z"/>
                </g>
                <g transform="translate(31.99 29.961)">
                    <use fill="#000" filter="url(#O)" xlink:href="#N"/>
                    <use fill="#E4A51C" xlink:href="#N"/>
                    <ellipse cx="7.709" cy="2.011" fill="#FFD400" rx="7.542" ry="2.011"/>
                    <path fill="#E4A51C" d="M7.71 3.687c3.516 0 6.367-.75 6.367-1.676 0-.925-2.85-1.676-6.368-1.676-3.517 0-6.368.75-6.368 1.676 0 .926 2.85 1.676 6.368 1.676zm0-.168c3.239 0 5.865-.675 5.865-1.508S10.949.503 7.709.503c-3.24 0-5.866.675-5.866 1.508S4.47 3.52 7.71 3.52z"/>
                </g>
            </g>
            <g filter="url(#P)" transform="rotate(45 15.689 73.072)">
                <path fill="#E4A51C" d="M0 1.599h9.25v1.598c0 .883-2.07 1.6-4.625 1.6C2.07 4.796 0 4.08 0 3.196V1.6z"/>
                <ellipse cx="4.625" cy="1.599" fill="#FFD400" rx="4.625" ry="1.599"/>
            </g>
            <g filter="url(#Q)" transform="rotate(-64 26.883 -1.823)">
                <path fill="#E4A51C" d="M0 1.663h9.622v1.663c0 .918-2.154 1.663-4.811 1.663S0 4.244 0 3.326V1.663z"/>
                <ellipse cx="4.811" cy="1.663" fill="#FFD400" rx="4.811" ry="1.663"/>
            </g>
            <g filter="url(#R)" transform="rotate(-14 133.75 -44.597)">
                <path fill="#E4A51C" d="M0 1.5h8.68V3c0 .83-1.943 1.5-4.34 1.5S0 3.83 0 3V1.5z"/>
                <ellipse cx="4.34" cy="1.5" fill="#FFD400" rx="4.34" ry="1.5"/>
            </g>
            <g>
                <g filter="url(#S)" transform="rotate(64 15.684 37.605)">
                    <path fill="#E4A51C" d="M0 1.55h8.963v1.548c0 .856-2.006 1.55-4.481 1.55C2.006 4.648 0 3.954 0 3.098V1.55z"/>
                    <ellipse cx="4.482" cy="1.549" fill="#FFD400" rx="4.482" ry="1.549"/>
                </g>
            </g>
        </g>
        <g mask="url(#b)">
            <path fill="#33A6A6" d="M57.87 90.386a3.82 3.82 0 1 0-7.644-.002 3.82 3.82 0 0 0 7.645.002m32.796-3.821a3.82 3.82 0 1 0-7.64-.002 3.82 3.82 0 0 0 7.64.002m21.657 14.01a3.82 3.82 0 1 0-7.643 0 3.82 3.82 0 1 0 7.643 0m-56.946-3.263c-.636.702-1.285 1.978-1.873 3.55l-5.483-4.596c.005.01.01.024.01.043-.89-1.528-1.71-3.2-2.227-4.839-.807-2.57-1.18-5.297-1.347-7.418 3.559.235 24.265.908 27.103-14.368l-.153-.047c.645-2.035.917-4.108.83-5.961a16.419 16.419 0 0 0-1.68-6.463 3.82 3.82 0 0 0 4.824-3.688 3.82 3.82 0 0 0-3.821-3.82 3.824 3.824 0 0 0-3.788 3.31c-2.326-2.733-5.24-4.806-7.91-6.143-3.52-1.758-7.948-2.895-11.712-3.33a14.11 14.11 0 0 1 1.977-3.591c2.116-2.785 6.119-5.89 13.274-5.188l.096-.215a35.156 35.156 0 0 1 4.57 2.46c4.066 2.575 7.596 5.79 9.955 8.149a50.277 50.277 0 0 1 2.303 2.484c3.176 3.644 7.035 8.798 10.89 14.277a328.596 328.596 0 0 1 2.173 3.114 3.82 3.82 0 0 0-1.767 3.22 3.823 3.823 0 0 0 6.052 3.104c.43.645.855 1.285 1.27 1.92.588.894 1.357 2.169 2.279 3.721 2.145 3.588 5.101 8.636 8.478 13.704 3.544 5.312 7.547 10.652 11.56 14.354 2.063 1.91 4.131 3.386 6.138 4.203 2.87 1.17 5.64 1.94 8.287 2.384 1.294.22 2.56.363 3.797.43a3.813 3.813 0 0 0 1.863 5.211c-4.8 3.172-12.586 5.259-21.714 3.377a3.833 3.833 0 0 0-3.487-2.255c-.779 0-1.505.234-2.106.636-5.517-2.054-11.369-5.613-17.24-11.22-2.235-2.136-5.798-7.433-10.89-9.343-1.824-.683-3.845-.932-6.066-.45-5.24 1.138-8.158 3.115-14.545 10.566 1.06-1.566 2.236-3.716 3.387-6.644 1.84-4.662 4.041-8.913 8.526-10.824-1.313.292-4.829 1.304-7.122 4.075-2.393 2.89-5.493 12.419-8 13.255-1.17.392-3.578-.172-4.624-.459-.693-.735-1.705-1.51-2.484-2.431l.568-.812-1.47-1.065c-.03-.607.061-1.385.21-2.183.353-1.94 1.031-4.022 1.089-4.194"/>
            <path fill="#43BABA" d="M121.318 104.993l-.057.062c-4.013-3.702-8.016-9.042-11.56-14.354l.168-.114s8.263-1.92 13.283-.296c-2.952 7.012-1.834 14.702-1.834 14.702"/>
            <path fill="#2A8A8A" d="M114.038 119.04a3.81 3.81 0 0 0-1.714 3.187c0 .85.277 1.633.745 2.268-3.525-.926-6.735-2.928-9.587-5.397-1.657-1.428-3.19-3.014-4.595-4.633-4.089-4.705-7.083-9.692-8.798-11.96-1.252-1.653-2.8-2.719-4.447-3.301l.267-.727c5.092 1.911 8.655 7.208 10.891 9.343 5.87 5.608 11.722 9.167 17.238 11.22"/>
            <path fill="#3D6691" d="M117.693 77.446c-6.349 6.568-7.825 13.14-7.825 13.14l-.167.115c-3.377-5.067-6.333-10.116-8.478-13.704l.23-.138s8.931-2.952 16.24.587"/>
            <path fill="#43BABA" d="M108.502 96.753a3.823 3.823 0 0 1 3.822 3.822 3.82 3.82 0 1 1-7.642 0 3.82 3.82 0 0 1 3.82-3.822M108.689 62.983c-5.465 6.64-7.237 13.876-7.237 13.876l-.229.138c-.922-1.552-1.69-2.827-2.278-3.72-.416-.636-.841-1.276-1.27-1.92a3.823 3.823 0 0 0-2.23-6.926 3.78 3.78 0 0 0-2.056.601 325.38 325.38 0 0 0-2.173-3.114l.272-.191s9.673-3.32 17.2 1.256"/>
            <path fill="#E6D5BA" d="M68.92 116.089c1.475-1.142 1.585-1.481 1.585-1.481-4.652-2.809 3.229-12.066 8.12-15.285l-.01-.024c2.183-.793 4.706-.926 7.027-.095 1.648.582 3.195 1.648 4.447 3.3 1.715 2.27 4.71 7.256 8.798 11.96l-.258.282s-2 5.26-6.21 6.287c-7.795 1.905-15.07 2.182-21.05 2.369-4.284.133-7.895.22-10.556.816-6.243 1.405-5.89-3.224-5.89-3.224l.025-.172c1.447.22 3.08.43 4.514.172 3.243-.592 9.371-5.02 9.371-5.02l.086.115z"/>
            <path fill="#43BABA" d="M95.443 64.43a3.823 3.823 0 0 1 2.23 6.926 511.47 511.47 0 0 0-4.284-6.324 3.78 3.78 0 0 1 2.054-.602"/>
            <path fill="#43BABA" d="M97.674 71.356a3.823 3.823 0 0 1-6.052-3.105 3.82 3.82 0 0 1 1.767-3.219c1.457 2.116 2.9 4.246 4.285 6.324"/>
            <path fill="#3D6691" d="M97.54 46.671c-3.687 7.088-6.052 15.056-6.052 15.056l-.272.19c-3.855-5.478-7.714-10.632-10.89-14.276l.095-.086s9.133-3.501 17.12-.884"/>
            <path fill="#43BABA" d="M86.846 82.744a3.82 3.82 0 1 1 .002 7.64 3.82 3.82 0 0 1-.002-7.64"/>
            <path fill="#2A8A8A" d="M62.737 111.527c.005-.005.058-.01.063-.014.673-.612 1.543-1.543 2.474-2.919 6.387-7.451 9.317-9.428 14.557-10.565 2.221-.483 4.248-.234 6.072.448l-.264.727c-2.322-.831-4.842-.698-7.025.095-.516.182-1.012.406-1.48.66-2.928 1.59-6.701 6.433-8.526 8.635-2.01 2.432-3.54 4.686-5.164 5.178-.77-.52-.842-1.027-1.898-1.385v-.005c0-.167.737-.44 1.191-.855"/>
            <path fill="#43BABA" d="M68.17 36.855s8.487-5.02 16.975-3.84c-3.993 6.95-4.724 14.54-4.724 14.54l-.096.086a50.366 50.366 0 0 0-2.302-2.484c-2.36-2.36-5.89-5.574-9.954-8.149l.1-.153z"/>
            <path fill="#BDAF99" d="M78.616 99.3l.009.023c-4.891 3.22-12.772 12.476-8.12 15.285 0 0-.11.339-1.586 1.48l-.086-.114c-2.04-.287-3.912-1.27-5.292-2.202 1.624-.492 3.057-2.746 5.068-5.178 1.824-2.202 5.598-7.045 8.526-8.636.468-.253.965-.477 1.48-.659"/>
            <path fill="#2A8A8A" d="M70.09 95.2c2.292-2.77 5.808-3.782 7.121-4.074-4.485 1.911-6.687 6.162-8.526 10.824-1.151 2.928-2.326 5.078-3.386 6.644a237.5 237.5 0 0 0-2.45 2.919l-.015.014a8.037 8.037 0 0 1-1.094.855c-.377-.33-.583-.54-.583-.54a.491.491 0 0 0-.3-.076 8.584 8.584 0 0 0-.775-1.252c-.64-.883-1.5-1.757-2.43-2.307a8.34 8.34 0 0 0-.187-.21c1.046.287 3.453.85 4.624.459 2.507-.836 5.607-10.365 8-13.255"/>
            <path fill="#43BABA" d="M71.56 49.704a3.82 3.82 0 0 1 3.822 3.821 3.82 3.82 0 0 1-4.825 3.688 19.622 19.622 0 0 0-2.784-4.199 3.824 3.824 0 0 1 3.788-3.31"/>
            <path fill="#BDAF99" d="M72.239 63.676c.086 1.853-.186 3.926-.831 5.96-1.17 3.726-3.559 7.314-7.17 9.176-6.911 3.559-14.224 2.217-19.909 1.438 0 0-1.175-.83-1.456-1.882a3.576 3.576 0 0 1 .248-2.503l.011.015c6.272 2.617 10.142-.564 10.142-.564v-.019c1.232.033 1.14.019 1.642-.029 1.858-.172 5.602-1.662 5.64-2.856l.453.038s5.204 3.248 7.765-1.571c2.259-4.247 2.785-10.14-.51-15.137l.129-.081a3.833 3.833 0 0 0 2.164 1.552 16.416 16.416 0 0 1 1.682 6.463"/>
            <path fill="#278080" d="M71.408 69.637l.152.048C68.723 84.96 48.017 84.286 44.458 84.052c-.176-2.235-.129-3.802-.129-3.802 5.685.779 12.997 2.121 19.91-1.438 3.61-1.862 5.998-5.45 7.169-9.175"/>
            <path fill="#BDAF99" d="M70.558 57.213a3.831 3.831 0 0 1-2.785-4.199 19.616 19.616 0 0 1 2.785 4.199"/>
            <path fill="#E6D5BA" d="M68.265 55.742c3.295 4.996 2.77 10.89.51 15.137-2.56 4.82-7.761 1.571-7.761 1.571l-.45-.038a.61.61 0 0 0-.19-.454c-.497-.52-1.065-1.065-1.796-1.997-.86-1.093-1.944-2.732-3.372-5.507-2.384-4.638-6.492-6.386-7.748-6.859-1.256-.473-4.027-.864-5.612-.263-1.228.464-3.234 2.446-4.443 3.726l-.01-.067s-.185-1.442.665-3.1c-.52-1.81-.225-3.764-.225-3.764s-.09-1.538.812-3.138c.674-1.194 1.787-2.565 3.043-3.812 8.24-3.735 19.278 1.204 24.14 5.713a15.743 15.743 0 0 1 2.437 2.852"/>
            <path fill="#BDAF99" d="M48.15 43.542c3.765.435 8.192 1.572 11.713 3.33 2.67 1.337 5.584 3.41 7.91 6.142a3.797 3.797 0 0 0 .621 2.646l-.13.082a15.75 15.75 0 0 0-2.435-2.852c-4.863-4.509-15.901-9.448-24.141-5.713 1.763-1.753 3.802-3.272 5.288-3.75.382.03.774.068 1.175.115"/>
            <path fill="#3D6691" d="M68.17 36.855l-.101.153c-1.466-.926-3-1.767-4.571-2.46-4.108-1.796-8.483-2.55-12.6-1.012-.703.262-1.362.568-1.983.907l-.01-.024s8.527-7.895 21.423-10.293c-3.195 5.717-2.159 12.73-2.159 12.73"/>
            <path fill="#2A8A8A" d="M65.299 108.594c-.932 1.376-1.777 2.307-2.45 2.919a237.5 237.5 0 0 1 2.45-2.919"/>
            <path fill="#3BBFBF" d="M63.498 34.548l-.096.215c-7.155-.702-11.158 2.403-13.274 5.187l-1.3-.138c.479-.64.76-1.428.76-2.288a3.807 3.807 0 0 0-1.198-2.78 15.338 15.338 0 0 1 2.507-1.208c4.118-1.538 8.493-.784 12.6 1.012"/>
            <path fill="#4D4233" d="M60.374 71.958a.61.61 0 0 1 .191.454c-.038 1.194-3.773 2.684-5.632 2.856-.501.048-1.046.062-1.624.029-1.848-.096-4.04-.693-6.214-2.422-1.552-1.237-2.216-3.84-3.024-5.693l.106-.043c4.356 7.284 11.821 6.567 14.272 2.923l.129-.1c.73.931 1.3 1.476 1.796 1.996"/>
            <path stroke="#4D4233" stroke-width=".88" d="M60.374 71.958a.61.61 0 0 1 .191.454c-.038 1.194-3.773 2.684-5.632 2.856-.501.048-1.046.062-1.624.029-1.848-.096-4.04-.693-6.214-2.422-1.552-1.237-2.216-3.84-3.024-5.693l.106-.043c4.356 7.284 11.821 6.567 14.272 2.923l.129-.1c.73.931 1.3 1.476 1.796 1.996z"/>
            <path fill="#E6D5BA" d="M57.059 107.892a9.649 9.649 0 0 1 .592.315c.932.55 1.791 1.424 2.431 2.307l-.124.091c-.482.244-.974.535-1.466.865-1.958-1.003-4.036-2.34-5.292-3.368l.85-1.208c.903.186 1.992.492 3.009.998"/>
            <path fill="#2A8A8A" d="M57.465 107.997c.062.067.124.139.186.21a9.597 9.597 0 0 0-.578-.31c.086.024.22.062.392.1"/>
            <path fill="#43BABA" d="M57.465 107.997c-.172-.038-.306-.076-.392-.1-.005-.005-.01-.005-.014-.005-1.017-.506-2.106-.812-3.01-.998l.932-1.328c.779.922 1.791 1.696 2.484 2.431M54.05 86.565a3.823 3.823 0 0 1 3.82 3.821 3.826 3.826 0 0 1-3.82 3.821 3.82 3.82 0 1 1 0-7.642"/>
            <path fill="#33A6A6" d="M54.078 103.689l1.472 1.065-.569.812a5.583 5.583 0 0 1-.707-1.013c-.115-.21-.176-.51-.196-.864"/>
            <path fill="#43BABA" d="M54.274 104.553c.191.359.435.698.707 1.013-.244.349-.564.802-.931 1.328a14.934 14.934 0 0 0-1.973-.287c-.048-.004-.072-.004-.072-.004s.053-.473.206-1.252c.453-.444.926-1.29 1.304-2.078l.563.416c.02.353.082.654.196.864M55.378 97.29c-.058.173-.736 2.941-1.09 4.173h-.014l-.769-.634c.588-1.571 1.237-2.836 1.873-3.538"/>
            <path fill="#43BABA" d="M54.274 101.463h.015c-.149.704-.24 1.598-.21 2.205l-.564-.427c.444-.926.76-1.778.76-1.778"/>
            <path fill="#43BABA" d="M53.505 100.861l.77.645s-.316.84-.76 1.767l-.66-.477c.206-.679.421-1.328.65-1.935"/>
            <path fill="#2A8A8A" d="M52.57 106.607c0 .015.747.081 1.726.287-.258.368-.42.774-.726 1.208-.87-.707-1.352-1.265-1-1.466v-.029z"/>
            <path fill="#43BABA" d="M52.856 102.796l.659.477c-.378.788-.85 1.634-1.304 2.078a27.72 27.72 0 0 1 .645-2.555"/>
            <path fill="#33A6A6" d="M48.022 96.266l5.483 4.595c-.229.607-.444 1.256-.65 1.935l-.553-.402s-2.298-2.684-4.27-6.085a.097.097 0 0 0-.01-.043"/>
            <path fill="#4D4233" d="M39.476 67.167c.43-1.003 1.109-1.867 2.374-2.049 1.042-.148 1.667.774 2.221 2.064.808 1.853 1.454 4.456 3.007 5.693 2.173 1.73 4.084 2.326 6.196 2.422v.02s-3.87 3.18-10.142.563l-.02-.015c.02-.028.033-.043.033-.043-3.1-2.101-4.426-5.975-4.426-5.975l-.027-.206c.224-.711.421-1.643.784-2.474"/>
            <path fill="#E6D5BA" d="M53.2 108.102c1.256 1.027 3.334 2.365 5.292 3.368-5.092 3.415-10.394 10.995-11.97 10.995-1.725 0-4.003-.706-4.318-2.039l-.334-.015c1.022-.926 2.483-.592 3.491-1.705 1.352-1.495 5.274-6.973 7.839-10.604"/>
            <path fill="#FFF" d="M52.856 102.796a4.233 4.233 0 0 0-.077.262s-2.132-1.939-4.787-6.2c-.048-.076-.174-.153-.174-.229v-.005c0-.138.183-.248.183-.315a45.26 45.26 0 0 0 4.286 6.085l.569.402z"/>
            <path fill="#2A8A8A" d="M52.67 103.436c-.206.74-.354 1.394-.46 1.915-.224.225-.448.344-.649.31-.267-.042-.587-.157-.946-.324a2.33 2.33 0 0 1 .502-.358c1.404-.664-5.015-3.764-5.015-3.764l-.235.396c-.568-.707-.86-1.342-.654-1.729.435-.803 2.145-2.489 2.665-3.253l.144.23c2.656 4.26 4.757 6.2 4.757 6.2-.038.123-.076.248-.11.377"/>
            <path fill="#2A8A8A" d="M49.35 104.625c-1.28-.826-2.666-1.997-3.483-3.014l.235-.396s6.42 3.1 5.015 3.764a2.33 2.33 0 0 0-.502.358 10.63 10.63 0 0 1-1.265-.712"/>
            <path fill="#3BBFBF" d="M46.976 43.428c-3.506-.287-6.234.1-6.735 1.227.09-.243.879-2.321 2.588-4.69a3.817 3.817 0 0 0 6-.153l1.3.138a14.104 14.104 0 0 0-1.978 3.592 27.235 27.235 0 0 0-1.175-.114"/>
            <path fill="#BDAF99" d="M49.35 104.625c.444.287.874.53 1.265.712-.52.44-1.241 1.199-2.025 2.097l-1.26-.53c.854-1.008 1.657-1.93 2.02-2.279"/>
            <path fill="#57CFCF" d="M49.588 37.524a3.817 3.817 0 0 1-6.759 2.44c1.295-1.8 3.115-3.768 5.56-5.22a3.806 3.806 0 0 1 1.2 2.78"/>
            <path fill="#BDAF99" d="M47.33 106.904l1.26.53c-2.078 2.364-4.61 5.646-5.144 6.324-.812 1.036-2.365 1.552-3.396 1.624-1.037.076-4.428-1.108-4.137-3.1.1-.688.674-1.17 1.428-1.572l.148.287s.827 2.025 3.034 2.269c1.886.205 2.827-1.534 4.332-3.387.563-.692 1.547-1.887 2.474-2.975"/>
            <path fill="#33A6A6" d="M48.031 96.31c0 .066-.052.176-.153.314-1.92-3.205-3.582-8.473-3.84-12.6.086.005.23.019.42.028.167 2.121.54 4.849 1.347 7.418.516 1.639 1.338 3.31 2.226 4.84"/>
            <path fill="#E6D5BA" d="M49.35 104.625c-.363.349-1.166 1.27-2.02 2.278-.928 1.09-1.912 2.284-2.475 2.976-1.505 1.854-2.446 3.592-4.332 3.387-2.207-.244-3.034-2.269-3.034-2.269l-.148-.287c1.433-.754 3.506-1.199 4.185-2.116.869-1.184 3.53-5.622 4.341-6.983.817 1.017 2.202 2.188 3.483 3.014"/>
            <path fill="#278080" d="M40.24 45.143c.502-1.408 3.23-1.758 6.736-1.471-1.486.477-3.525 1.874-5.288 3.627-.095.043-.191.03-.287.078l-.062.084c-.659 0-1.738-1.262-1.103-2.318h.005z"/>
            <path fill="#33A6A6" d="M44.33 80.25s-.048 1.567.128 3.802c-.19-.01-.334-.023-.42-.028-.09-1.443-.01-2.747.291-3.774"/>
            <path fill="#4D4233" d="M38.402 67.726c-1.94.707-3.181-.544-3.181-.544.372 1.948 1.423 3.978 2.713 3.601.353-.105.568-.544.76-1.141.224-.712.42-1.644.782-2.475a4.47 4.47 0 0 1-1.074.56"/>
            <path stroke="#4D4233" stroke-width=".88" d="M38.402 67.726c-1.94.707-3.181-.544-3.181-.544.372 1.948 1.423 3.978 2.713 3.601.353-.105.568-.544.76-1.141.224-.712.42-1.644.782-2.475a4.47 4.47 0 0 1-1.074.56z"/>
            <path fill="#615441" d="M55.206 64.454c-2.384-4.638-6.492-6.386-7.748-6.859-1.256-.473-4.026-.864-5.612-.263-1.228.464-3.234 2.446-4.443 3.726-.353.368-.635.674-.816.874-.913 1.008-1.749 3.258-1.366 5.25 0 0 1.241 1.251 3.18.544.34-.115.698-.3 1.075-.559.43-1.003 1.109-1.867 2.374-2.049 1.042-.148 1.667.774 2.221 2.064l.106-.043c4.356 7.284 11.821 6.567 14.272 2.923l.129-.1c-.86-1.094-1.944-2.733-3.372-5.508"/>
            <path stroke="#000" stroke-width=".955" d="M45.867 101.611c-.812 1.361-3.472 5.799-4.341 6.983-.679.917-2.752 1.362-4.185 2.116-.754.401-1.328.884-1.428 1.572-.291 1.992 3.1 3.176 4.137 3.1 1.031-.072 2.584-.588 3.396-1.624.535-.679 3.066-3.96 5.144-6.324.784-.898 1.505-1.658 2.025-2.097"/>
            <path stroke="#000" stroke-width=".955" d="M47.878 96.629c-.52.764-2.23 2.45-2.665 3.253-.205.387.086 1.022.654 1.729.817 1.017 2.202 2.188 3.483 3.014.444.287.874.53 1.265.712.359.167.679.282.946.324.2.034.425-.085.65-.31M52.077 106.636c-.22.2.253.76 1.122 1.466"/>
            <path stroke="#000" stroke-linejoin="round" stroke-width=".955" d="M54.05 106.894l-.85 1.208c-2.566 3.63-6.487 9.11-7.839 10.604-1.008 1.113-2.47.779-3.492 1.706-.396.362-.73.921-.936 1.834.445 1.92 3.248 3.396 5.904 2.436 1.137-.712 2.608-2.088 4.18-3.688M38.693 69.642l.029.205s1.328 3.874 4.428 5.975l-.03.043a3.577 3.577 0 0 0-.247 2.503c.281 1.051 1.456 1.882 1.456 1.882M46.976 43.428c-1.486.477-3.525 1.996-5.288 3.75-1.256 1.246-2.37 2.617-3.043 3.811-.902 1.6-.812 3.138-.812 3.138s-.296 1.954.225 3.764c-.85 1.658-.664 3.1-.664 3.1l.01.067"/>
            <path stroke="#000" stroke-linejoin="round" stroke-width=".955" d="M157.133 107.983a32.145 32.145 0 0 1-17.65 4.089 33.434 33.434 0 0 1-3.797-.43c-2.646-.444-5.417-1.213-8.288-2.384-2.006-.817-4.074-2.292-6.137-4.203-4.013-3.702-8.015-9.042-11.56-14.354-3.377-5.067-6.333-10.116-8.478-13.704-.922-1.552-1.691-2.827-2.278-3.72a512.104 512.104 0 0 0-5.555-8.244 322.238 322.238 0 0 0-2.174-3.115c-3.855-5.479-7.714-10.633-10.89-14.277a50.366 50.366 0 0 0-2.303-2.484c-2.36-2.36-5.89-5.574-9.954-8.149-1.466-.927-3-1.767-4.571-2.46-4.108-1.796-8.483-2.55-12.6-1.012a15.362 15.362 0 0 0-2.508 1.208c-2.446 1.452-4.266 3.42-5.56 5.22-1.71 2.37-2.499 4.448-2.59 4.691 0 0 0 .005-.004.01-.005.01-.005.014-.005.014"/>
            <path stroke="#000" stroke-linejoin="round" stroke-width=".955" d="M61.305 112.626c.177-.02.497-.067.497-.067.315.372 1.099 1.07 1.662 1.237a.495.495 0 0 0 .077-.024c1.624-.492 3.057-2.746 5.068-5.178 1.824-2.202 5.598-7.045 8.526-8.636a10.35 10.35 0 0 1 1.48-.659c2.183-.793 4.705-.926 7.027-.095 1.648.582 3.195 1.648 4.447 3.3 1.715 2.27 4.71 7.256 8.798 11.96 1.404 1.62 2.938 3.206 4.595 4.634 2.852 2.47 6.062 4.47 9.587 5.397.382.1.769.187 1.156.263 1.256.239 2.636.444 4.122.593 11.574 1.15 29.166-1.157 39.273-17.645-.158.09-.315.181-.478.272M57.073 107.897c.196.096.387.2.578.31.932.55 1.791 1.424 2.431 2.307.316.43.578.855.774 1.252.158.32.272.616.34.87 0 .004.042 0 .1-.005M52.67 103.436c-.206.74-.354 1.394-.46 1.915-.152.779-.205 1.252-.205 1.252s.024 0 .072.004c.23.015.994.081 1.973.287.903.186 1.992.492 3.009.998"/>
            <path stroke="#000" stroke-linejoin="round" stroke-width="1.232" d="M40.24 44.655c.502-1.127 3.23-1.514 6.736-1.227.382.028.774.067 1.175.114 3.764.435 8.191 1.572 11.712 3.33 2.67 1.337 5.584 3.41 7.91 6.142a19.616 19.616 0 0 1 2.785 4.199 16.419 16.419 0 0 1 1.68 6.463c.087 1.853-.185 3.926-.83 5.96-1.17 3.726-3.559 7.314-7.17 9.177-6.912 3.558-14.225 2.216-19.909 1.437-.3 1.027-.456 2.331-.365 3.774.258 4.127 2.006 9.395 3.766 12.6v.005c0 .076.17.153.218.23 2.655 4.26 4.794 6.2 4.794 6.2"/>
            <path stroke="#000" stroke-linejoin="round" stroke-width=".955" d="M38.693 69.642c-.19.597-.406 1.036-.76 1.141-1.29.377-2.34-1.653-2.712-3.601-.383-1.992.453-4.242 1.366-5.25.181-.2.463-.506.816-.874 1.209-1.28 3.215-3.262 4.443-3.726 1.585-.601 4.356-.21 5.612.263 1.256.473 5.364 2.221 7.748 6.86 1.428 2.774 2.512 4.413 3.372 5.506.73.932 1.3 1.477 1.796 1.997a.61.61 0 0 1 .191.454c-.038 1.194-3.773 2.684-5.632 2.856-.501.048-1.046.062-1.624.029-1.848-.096-4.04-.693-6.214-2.422-1.552-1.237-2.216-3.84-3.024-5.693-.554-1.29-1.18-2.212-2.22-2.064-1.266.182-1.945 1.046-2.375 2.05-.363.83-.558 1.762-.783 2.474z"/>
            <path stroke="#000" stroke-linecap="round" stroke-linejoin="round" stroke-width=".955" d="M43.15 75.88c6.271 2.617 10.16-.564 10.16-.564"/>
            <path stroke="#000" stroke-width=".955" d="M40.38 44.273a4.28 4.28 0 0 0-.144.382c-.635 1.849.444 2.532 1.103 2.532"/>
            <path stroke="#000" stroke-linecap="round" stroke-width=".955" d="M77.837 90.878c-.215.077-.42.158-.626.248-4.485 1.911-6.687 6.162-8.526 10.824-1.151 2.928-2.326 5.078-3.386 6.644-.932 1.376-1.777 2.308-2.45 2.919M52.56 103.832c.038-.134.071-.267.11-.396.033-.13.071-.254.11-.378a30.508 30.508 0 0 1 .726-2.197c.587-1.571 1.236-2.847 1.872-3.549"/>
            <path stroke="#000" stroke-linejoin="round" stroke-width=".955" d="M157.142 107.978s-.005.005-.01.005c-.248.09-6.176 2.26-10.584.167-.44 1.476 0 3.396 0 3.396s-.282-.072-.745-.229a19.66 19.66 0 0 1-3.062-1.342c-1.725-.946-3.607-2.355-4.643-4.332-2.25 1.772-2.398 5.903-2.398 5.903s-6.716-4.208-6.94-11.664c-4.868.592-7.442 5.11-7.442 5.11s-1.118-7.69 1.834-14.701c-5.02-1.625-13.284.296-13.284.296s1.476-6.573 7.825-13.14c-7.309-3.54-16.24-.588-16.24-.588s1.771-7.237 7.236-13.876c-7.528-4.576-17.2-1.256-17.2-1.256s2.364-7.967 6.051-15.056c-7.986-2.617-17.119.884-17.119.884s.731-7.59 4.724-14.54c-8.488-1.18-16.976 3.84-16.976 3.84s-1.036-7.012 2.16-12.73C57.431 26.525 48.904 34.42 48.904 34.42M57.059 107.892c.005 0 .01 0 .014.005"/>
            <path fill="#000" d="M64.418 73.602c-1.483 0-3.244-.48-4.418-1.796a.239.239 0 1 1 .356-.319c1.722 1.93 5.012 1.921 6.14 1.184a.239.239 0 0 1 .261.4c-.487.319-1.352.531-2.339.531M38.314 64.182a.09.09 0 0 0-.09.091c0 .1.181.1.181 0a.091.091 0 0 0-.09-.091m0 .478a.387.387 0 1 1 0-.774.387.387 0 0 1 0 .774M40.492 63.26c-.05 0-.092.04-.092.09 0 .101.183.101.183 0 0-.05-.041-.09-.091-.09m0 .477a.387.387 0 1 1 0-.774.387.387 0 0 1 0 .774M51.562 62.374a.09.09 0 0 0-.09.091c0 .1.181.1.181 0a.091.091 0 0 0-.09-.091m0 .477a.387.387 0 1 1 0-.773.387.387 0 0 1 0 .773M48.831 64.293c-.05 0-.091.04-.091.09 0 .102.182.102.182 0a.09.09 0 0 0-.09-.09m0 .477a.387.387 0 1 1 0-.774.387.387 0 0 1 0 .774M47.134 66.58c-.05 0-.091.042-.091.092 0 .1.182.1.182 0 0-.05-.04-.091-.091-.091m0 .477a.387.387 0 1 1 0-.773.387.387 0 0 1 0 .773M50.012 67.245c-.05 0-.091.04-.091.091 0 .1.182.1.182 0a.091.091 0 0 0-.091-.091m0 .478a.387.387 0 1 1 0-.774.387.387 0 0 1 0 .774M52.521 65.99c-.05 0-.09.041-.09.091 0 .101.182.101.182 0a.091.091 0 0 0-.092-.09m0 .477a.387.387 0 1 1 .001-.773.387.387 0 0 1 0 .773M54.883 68.795c-.05 0-.09.04-.09.09 0 .102.182.102.182 0a.091.091 0 0 0-.092-.09m0 .477a.387.387 0 1 1 .001-.773.387.387 0 0 1 0 .773M50.75 69.828c-.05 0-.091.04-.091.091 0 .101.182.101.182 0 0-.05-.04-.091-.09-.091m0 .478a.387.387 0 1 1 0-.774.387.387 0 0 1 0 .774M39.606 61.193c-.05 0-.092.04-.092.091 0 .1.183.1.183 0a.091.091 0 0 0-.091-.091m0 .477a.386.386 0 1 1 0-.772.386.386 0 0 1 0 .772M48.905 61.488a.09.09 0 0 0-.09.091c0 .101.182.101.182 0a.091.091 0 0 0-.092-.09m0 .477a.386.386 0 1 1 0-.773.386.386 0 0 1 0 .773M53.628 59.973a.237.237 0 0 1-.16-.062c-4.684-4.276-9.8-4.877-15.203-1.79a.239.239 0 1 1-.237-.415c5.604-3.202 10.907-2.58 15.761 1.852a.239.239 0 0 1-.16.415"/>
            <path fill="#000" d="M45.678 55.918c-.433-4.85 2.093-10.427 4.642-12.175l.27.394c-2.39 1.639-4.85 7.124-4.436 11.738l-.476.043zM68.833 116.332a.358.358 0 0 1-.194-.66c1.367-.877 2.64-2.318 3.986-3.843 2.436-2.759 5.197-5.886 9.426-6.688a.358.358 0 1 1 .133.704c-3.987.757-6.662 3.786-9.022 6.458-1.38 1.564-2.685 3.041-4.136 3.972a.355.355 0 0 1-.193.057"/>
            <path fill="#3B3227" d="M44.278 56.994c1.68.24 2.907 1.395 2.83 2.132-3.343-2.787-5.84-.437-6.086-.183-.041-.22-.041-.417.006-.556.211-.646 1.569-1.628 3.25-1.393"/>
            <path fill="#29231B" d="M47.109 59.126c-.126 1.298-1.483 2.322-1.963 2.123-.336-.144.486-1.844-.345-1.637-.827.213-.002 1.708-.532 1.83-.741.168-1.498.008-1.666-.19-.163-.204.598-1.814-.172-1.84-.842-.03-.233 1.46-.528 1.43-.233-.022-.765-1.115-.881-1.899.246-.254 2.743-2.603 6.087.183"/>
            <path stroke="#000" stroke-width=".88" d="M41.022 58.943c-.041-.22-.041-.417.006-.556.211-.646 1.569-1.628 3.25-1.393 1.68.24 2.907 1.395 2.83 2.132-.125 1.298-1.482 2.322-1.962 2.122-.336-.143.486-1.843-.345-1.636-.827.213-.002 1.708-.532 1.83-.741.168-1.498.008-1.666-.19-.163-.204.598-1.814-.172-1.84-.842-.03-.233 1.46-.528 1.43-.233-.022-.765-1.115-.88-1.899z"/>
            <path fill="#D1D3D4" d="M43.957 53.181c.019.21.019.426-.005.645-.014.139-.038.55-.076.69-2.24-.865-5.938.483-5.938.483h-.004c-.038 0-.067-.517-.091-.646.263-.138 2.923-1.711 6.114-1.172"/>
            <path fill="#FFF" d="M43.876 54.516c-.172.726-.583 1.267-1.104 1.702-.883.224-1.404.549-2.23.788-1.261-.139-2.255-1.303-2.608-2.007h.004s3.697-1.348 5.938-.483"/>
            <path stroke="#000" stroke-linejoin="round" stroke-width=".88" d="M43.876 54.242c.038-.139.062-.277.076-.416a3.24 3.24 0 0 0 .005-.644c-3.19-.54-5.851.759-6.114.898.024.129.052.253.09.372.354 1.17 1.348 2.073 2.609 2.212.826-.24 1.347-.359 2.23-.583.52-.435.932-1.113 1.104-1.839z"/>
            <path fill="#D1D3D4" d="M57.642 54.868a3.51 3.51 0 0 1-.645 1.327l-.014-.014c-2.656-2.684-6.267-2.508-6.267-2.508l-.058-.004c.02-.187.053-.368.096-.545.764.038 4.366.277 6.888 1.744"/>
            <path fill="#FFF" d="M56.983 56.181l.014.014a3.556 3.556 0 0 1-6.358-2.188c0-.114.005-.228.02-.338l.057.004s3.61-.176 6.267 2.508"/>
            <path stroke="#000" stroke-linejoin="round" stroke-width=".88" d="M56.997 56.195c.3-.386.525-.835.645-1.327-2.522-1.467-6.124-1.706-6.888-1.744a4.04 4.04 0 0 0-.115.884 3.555 3.555 0 0 0 6.358 2.187z"/>
            <path fill="#000" d="M41.392 53.102a.664.664 0 1 0 1.285-.045 9.985 9.985 0 0 0-1.285.045"/>
            <path fill="#000" d="M41.624 53.322a.426.426 0 0 0 .84-.03 10.15 10.15 0 0 0-.84.03m.417.82a.904.904 0 0 1-.884-1.087l.035-.173.176-.018c.444-.043.887-.058 1.316-.045l.174.005.048.167a.888.888 0 0 1 .038.249.904.904 0 0 1-.903.903M54.307 54.09a.664.664 0 1 0 1.319-.1 15.507 15.507 0 0 0-1.158-.328.658.658 0 0 0-.16.428"/>
            <path fill="#000" d="M54.577 53.935a.426.426 0 0 0 .814.23c-.26-.082-.529-.157-.814-.23m.395 1.058a.904.904 0 0 1-.903-.903c0-.21.077-.418.217-.582l.095-.113.143.035c.42.102.805.211 1.176.332l.14.046.022.145c.007.045.013.09.013.137a.904.904 0 0 1-.903.903"/>
        </g>
    </g>
</svg>
