<svg xmlns="http://www.w3.org/2000/svg" xmlns:xlink="http://www.w3.org/1999/xlink" width="110" height="110" viewBox="0 0 110 110">
    <defs>
        <rect id="a" width="110" height="110" rx="55"/>
        <linearGradient id="c" x1="27.975%" x2="78.423%" y1="29.351%" y2="77.724%">
            <stop offset="0%" stop-color="#FF9695"/>
            <stop offset="100%" stop-color="#FF5C6C"/>
        </linearGradient>
    </defs>
    <g fill="none" fill-rule="evenodd">
        <mask id="b" fill="#fff">
            <use xlink:href="#a"/>
        </mask>
        <use fill="#07DEE7" xlink:href="#a"/>
        <g mask="url(#b)">
            <path fill="#BDAF99" d="M131.593 111.467c-.308-1.441-3.317-3.722-6.126-8.73-5.74-1.71-13.18.816-13.18.816a18.855 18.855 0 0 1-2.609-3.678l9.1-7.474s9.805 3.63 9.644 4.983c-.166 1.353-.274 4.332.323 5.954.595 1.627 3.737 5.692 6.067 6.825-2.873 7.855-3.63 12.838-4.006 13.434-.542.542-1.627 1.95-3.141 2.223-1.09.195-3.85-.22-4.226-1.192-.22-.562-.044-1.564.591-2.482l.215.132s3.093 1.06 4.397 0c1.3-1.06 3.254-9.365 2.95-10.81"/>
            <path stroke="#000" stroke-width=".977" d="M124.03 122.146c-.635.919-.81 1.92-.59 2.482.376.972 3.136 1.387 4.225 1.192 1.514-.274 2.599-1.68 3.141-2.223.376-.596 1.133-5.579 4.006-13.434-2.33-1.133-5.471-5.198-6.067-6.825-.596-1.621-.489-4.601-.323-5.954.161-1.354-9.643-4.983-9.643-4.983l-9.101 7.474s.972 1.895 2.609 3.678c.87.948 1.93 1.866 3.136 2.448 3.463 1.68 6.824 1.866 9.042 3.38 2.223 1.52 3.254 9.56 1.788 11.075a4.594 4.594 0 0 0-2.222 1.69z"/>
            <path fill="#E6D5BA" d="M118.945 61.44l1.451.942c-4.236 2.91-10.415 1.738-12.765-.242h.005c2.78 0 7.342-.314 11.31-.7"/>
            <path fill="#F5E2C6" d="M74.222 100.544c3.537-1.617 8.935-3.673 16.639-5.618 15.114-3.82 27.508-.625 28.998-.21l-.01.044c-.132.088-.278.18-.45.283l-.039-.063c-34.484 15.193-43.98 11.802-45.138 5.564"/>
            <path fill="#BDAF99" d="M122.355 62.997c-1.231 1.383-3.23 2.687-6.497 2.775-3.64.098-6.884-1.46-8.554-4.26.112.005.22.02.327.03 2.35 2.486 8.53 3.302 12.765.39l1.959 1.065z"/>
            <path fill="#E6D5BA" d="M121.881 48.757c4.113 3.679 4.24 8.173 4.035 11.588-.484.063-1.182.15-2.022.254.092-.2.17-.382.23-.523.434-1.036.273-1.808-.191-2.14-.484-.352-1.3-.22-2.091.591-1.202 1.231-2.58 1.983-4.235 1.886l-2.54-1.383c-.006-.005-.01-.01-.01-.014.224.024 2.76.244 3.693-1.588.444-.88-.166-2.262-1.143-2.687-.977-.43-2.888-.218-3.132 1.433-.127.87.078 1.826.582 2.366h-.015l.024.253c.445.674 1.129 1.3 2.013 1.447.18.03.357.108.528.114l1.338 1.056c-3.967.386-8.53.73-11.309.73h-.005c-.107 0-.215-.324-.327-.328-.66-1.104-1.08-2.554-1.177-4.014l.244-.09s1.998-10.013 13.517-10.135l.039-.18c.796.24 1.524.553 2.193.944l-.239.42z"/>
            <path fill="#FFF0D9" d="M119.888 47.536c-11.52.122-13.517 10.097-13.517 10.097l-.244.015c-.01-.112-.015-.225-.02-.342-.18-5.374 4.06-10.2 10.322-10.381a10.924 10.924 0 0 1 3.498.45l-.04.16z"/>
            <path fill="#BDAF99" d="M91.97 62.157c.343-.049 1.157-.127 1.697-.22v.01c0 1.592-2.107 4.113-2.233 4.265.053-.176.781-2.492.547-3.962l-.01-.093zM80.333 59.543c-.2 2.97-3.107 5.271-3.107 5.271s.963-2.77 1.153-4.958c.317-.073.982-.205 1.954-.313"/>
            <path fill="#917D61" d="M75.82 47.536c-.118.156-.24.312-.362.459l-.064-.054c-1.587.816-4.299 1.305-5.7-.322-4.48-5.213 5.373-8.305 5.373-8.305l-.015-.146a16.26 16.26 0 0 1 1.808-.098c2.257.02 2.99 1.075 2.013 2.726-1.813 2.501-1.69 3.947-3.054 5.74"/>
            <path fill="#615441" d="M74.666 52.118c-3.35-2.96-8.407-.703-8.88-9.14.57-.694 2.036-2.198 3.56-2.711 1.168-.386 3.61-.894 5.706-1.1l.015.147s-9.853 3.092-5.374 8.305c1.402 1.627 4.114 1.138 5.701.322l.064.054a18.854 18.854 0 0 1-2.628 2.594s.903.435 1.963 1.392l-.127.137z"/>
            <path fill="#BDAF99" d="M119.36 94.98c-34.484 15.193-43.98 11.802-45.138 5.564-.489-2.628.508-5.764 1.74-8.226l-7.246 10.908.22.171-.22.156-.058.108c2.54 1.402 6.492 2.921 12.354 3.595 11.974 1.383 33.365-9.135 38.387-12.212l-.039-.064zM53.29 86.7l2.886-.9s-1.587 1.589-1.91 3.42l-.249.05c-.176-.905-.454-1.75-.855-2.502l.127-.068z"/>
            <path fill="#E6D5BA" d="M54.098 40.37c1.162-.313 3.252-.582 5.695-.216l-10.323.948s.277-.005.277-.01v-.005c1.26-.64 3.08-.898 4.35-.718"/>
            <path fill="#EDD3B8" d="M126.81 65.425c0-.107 0-.21.005-.313.049.342.112.582.195.66.42.38 8.022 5.09 11.896 8.666l-.19.21c5.803 8.486 7.757 16.976 9.222 18.564 1.466 1.587 5.584 2.261 6.41 3.42.913 1.284 2.242 2.916 3.497 4.6 1.25 1.686 2.428 3.425 3.039 4.925.972 2.384-3.176 2.198-3.176 2.198l-.029.015c-1.5-2.94-3.835-6.942-7.87-8.402-6.311-2.277-19.457.327-29.96-5.208l.01-.044c-1.49-.415-13.884-3.61-28.998.21-7.704 1.945-13.102 4.001-16.64 5.618-.488-2.628.509-5.764 1.74-8.226l-7.245 10.908.22.171-.22.156-.058.108c-2.82-1.568-3.889-3-3.889-3-1.001.25-2.887 1.91-5.002 4.035l-.005-.004-16.61 5.617-.019-.019c2.985-2.965 7.171-6.615 8.08-7.797 2.018-2.623 3.703-8.656 2.804-13.224l.25-.049c.322-1.831 1.91-3.42 1.91-3.42l-2.888.9-.127.068c-.024-.049-.049-.102-.078-.151-2.482-.293-3.869-2.609-4.572-4.392l.014-.005c6.136-1.817 6.405-4.695 7.592-7.2 3.63-4.549 5.349-10.826 5.27-13.234l-.263-.005c.02-1.158-.391-2.692-1.818-3.615-2.633-1.71-6.502 0-7.259-.108-.757-.107-2.98-3.36-6.61-4.118-3.629-.757-7.337.435-7.337.435-.263-1.04-.781-1.676-.263-3.239.488-1.466 1.162-1.158 1.895-2.623 1.143-1.905 2.73-3.532 4.475-4.822l.044.059s3.663-2.018 5.13.058c0 0 8.06-4.088 16.242-.791l.093-.103c.024.02.044.044.068.064.474 8.436 5.53 6.18 8.881 9.14l.128-.137c1.572 1.417 3.497 3.967 3.365 7.929 0 0 .073-.02.22-.054-.19 2.189-1.153 4.958-1.153 4.958s2.907-2.3 3.107-5.27c1.27-.138 3.063-.23 5.296-.079 3.058.21 5.52 1.26 6.209 2.726 0 0 .097-.014.278-.034l.01.093c.234 1.47-.639 3.786-.693 3.962.127-.152 2.234-2.673 2.234-4.265v-.01c3.6-.332 9.041-.835 13.492-.425 1.67 2.8 4.987 4.358 8.626 4.26 3.268-.088 5.303-1.392 6.534-2.775l3.71 2.013.781.415z"/>
            <path fill="#4D4233" d="M42.337 78.8c.332-.083.654-.175.977-.278.17-.049.342-.108.508-.166a.284.284 0 0 0 .083-.03c6.316-2.178 10.63-7.22 12.047-11.846l.224.069s-1.382 10.58-9.726 13.311l-.005.284c-1.382-.03-3.366-.274-4.108-1.344"/>
            <path fill="#BDAF99" d="M59.767 104.697c-4.084 4.093-9.013 9.911-10.02 10.62-2.442 1.71-3.42 2.808-6.228 2.687-1.89-.084-4.152-1.955-3.464-4.03.24-.724 1.49-2.106 3.078-3.684l.02.02 16.609-5.618.005.005z"/>
            <path fill="#615441" d="M49.02 41.087c.053-.215.781-2.662 4.977-3.234 5.33-.723 7.162-2.232 7.963-1.553 1.568 1.339-1.587 3.786-1.587 3.786l-.763.068c-2.442-.366-4.714-.097-5.876.215-1.27-.18-2.936.078-4.714.718"/>
            <path fill="#FFF0D9" d="M59.61 40.154c2.116.318 4.358 1.11 6.107 2.76l-.093.103c-8.183-3.298-16.243.791-16.243.791-1.466-2.076-5.13-.058-5.13-.058l-.043-.059c1.553-1.148 3.224-2.027 4.812-2.599-.005.005-.005.01-.005.01l10.595-.948z"/>
            <path fill="#29231B" d="M56.381 62.089c.206 1.333.054 2.838-.43 4.391-1.416 4.626-5.73 9.668-12.046 11.847a9.834 9.834 0 0 0 6.453-9.238 9.773 9.773 0 0 0-.982-4.29c2.023-.024 4.216-.673 6.693-2.71.03-.02.063-.05.092-.074.079-.063.201-.024.22.074"/>
            <path fill="#BDAF99" d="M49.454 79.782c2.682-.752 4.9-2.555 6.664-4.763-1.187 2.506-1.456 5.384-7.592 7.201l-.014.005c-.47-1.173-.64-2.12-.64-2.12l-.005-.103c.136-.005.713-.034 1.578-.259l.01.04z"/>
            <path fill="#E6D5BA" d="M43.314 78.522"/>
            <path fill="#4D4233" d="M55.854 61.825s-3.45 1.714-7.548 1.255c-2.11-.234-4.391-1.045-6.468-2.965l-.18.015.029.434c2.442 3.215 4.924 4.153 7.162 4.23.176.006.351.01.527.006 2.023-.025 4.216-.674 6.693-2.712l-.215-.263z"/>
            <path stroke="#4D4233" stroke-width=".6" d="M55.854 61.825s-3.45 1.714-7.548 1.255c-2.11-.234-4.391-1.045-6.468-2.965l-.18.015.029.434c2.442 3.215 4.924 4.153 7.162 4.23.176.006.351.01.527.006 2.023-.025 4.216-.674 6.693-2.712l-.215-.263z"/>
            <path fill="#615441" d="M61.389 61.786l-.264-.005c.02-1.158-.391-2.692-1.818-3.615-2.632-1.71-6.502 0-7.259-.108-.757-.107-2.98-3.36-6.61-4.118-3.629-.757-7.337.435-7.337.435s-1.016 1.016-1.954 2.281c-.415.567-.786 1.539-1.07 2.438.274.127 1.056.454 2.194.718 1.148.264 2.662.464 4.387.318l.18-.015c2.077 1.92 4.358 2.73 6.468 2.965 4.099.46 7.548-1.255 7.548-1.255l.215.264c.029-.02.063-.05.093-.074.078-.063.2-.024.22.074.205 1.333.053 2.838-.43 4.391l.224.069s-1.382 10.58-9.726 13.311l-.005.284c.82.02 1.426-.04 1.426-.04l-.004-.102c.136-.005.713-.034 1.578-.259l.01.04c2.681-.753 4.899-2.556 6.663-4.764 3.63-4.548 5.349-10.825 5.27-13.233"/>
            <path fill="#4D4233" d="M41.658 60.13a14.262 14.262 0 0 1-4.387-.318c-1.138-.264-1.92-.591-2.194-.718-.346 1.114-.556 2.12-.556 2.12s.024.015.073.034c.474.205 3.214 1.236 7.093-.684l-.03-.434z"/>
            <path stroke="#4D4233" stroke-width=".6" d="M41.658 60.13a14.262 14.262 0 0 1-4.387-.318c-1.138-.264-1.92-.591-2.194-.718-.346 1.114-.556 2.12-.556 2.12s.024.015.073.034c.474.205 3.214 1.236 7.093-.684l-.03-.434z"/>
            <path stroke="#000" stroke-width=".977" d="M49.02 41.087c.053-.215.781-2.662 4.977-3.234 5.33-.723 7.162-2.232 7.963-1.553 1.568 1.339-1.587 3.786-1.587 3.786"/>
            <path stroke="#000" stroke-linecap="round" stroke-linejoin="round" stroke-width=".977" d="M49.376 64.8c.63 1.294.982 2.75.982 4.289a9.834 9.834 0 0 1-6.453 9.238"/>
            <path fill="#FFB56D" d="M36.64 73.632a2.592 2.592 0 1 1 0-5.184 2.592 2.592 0 0 1 0 5.184zm7.956-5.966a1.643 1.643 0 0 0-.904-.017c-.197.053-.375.14-.531.254a.415.415 0 0 1-.484 0 1.61 1.61 0 0 0-1.12-.3.415.415 0 0 1-.418-.242 1.617 1.617 0 0 0-.82-.82.415.415 0 0 1-.242-.419 1.617 1.617 0 0 0-.3-1.119.415.415 0 0 1 0-.484c.114-.156.201-.334.254-.531a1.645 1.645 0 0 0-.017-.904A8.64 8.64 0 0 0 28 71.04a8.64 8.64 0 0 0 8.64 8.64 8.64 8.64 0 0 0 7.956-12.014z"/>
            <path fill="url(#c)" d="M8.64 11.232a2.592 2.592 0 1 1 0-5.184 2.592 2.592 0 0 1 0 5.184m7.052-5.983c-.197.053-.375.14-.531.254a.415.415 0 0 1-.484 0 1.61 1.61 0 0 0-1.12-.3.415.415 0 0 1-.418-.242 1.617 1.617 0 0 0-.82-.82.415.415 0 0 1-.242-.419 1.617 1.617 0 0 0-.3-1.119.415.415 0 0 1 0-.484c.114-.156.201-.334.254-.531a1.645 1.645 0 0 0-.017-.903A8.629 8.629 0 0 0 8.21.01C3.82.223.245 3.78.013 8.17a8.633 8.633 0 0 0 3.94 7.728c1.01.654 2.301.745 3.377.206l.03-.015a2.454 2.454 0 0 1 1.899-.136 3.273 3.273 0 0 0 3.928-1.534c.244-.448.591-.833 1.043-1.07a2.539 2.539 0 0 0 1.352-2.426c-.037-.533.104-1.063.44-1.479a5.29 5.29 0 0 0 .082-.103c.893-1.163 1.029-2.721.487-4.077a1.645 1.645 0 0 0-.899-.016" transform="translate(28 62.4)"/>
            <path fill="#FFF" d="M38.767 69.56a2.592 2.592 0 0 1-3.606 3.606c-.033.628.405.903.849 1.096.315.137.876-.036 1.242-.036.358 0 1.098.144 1.584-.648.173-.283.71-.571.84-.881.131-.31.114-.525.114-.883 0-.244.234-.72.162-1.17-.096-.6-.54-1.116-1.185-1.083M28.81 71.985c0-.862.25-1.968.486-2.754.22-.735.249-1.453.645-2.092.332-.534.889-.97 1.326-1.418.615-.632 1.158-1.23 1.942-1.651.569-.306 1.12-.31 1.757-.482.723-.196 1.43-.567 2.214-.567.98 0 2.025.702 2.904.492a1.686 1.686 0 0 0-.07-.429 8.64 8.64 0 0 0-9.15 14.38c.214-1.321-.784-1.518-1.433-2.752-.484-.92-.621-1.778-.621-2.727"/>
            <path stroke="#7C2F57" stroke-linecap="round" stroke-linejoin="round" stroke-width=".72" d="M29.04 66.928a8.64 8.64 0 0 0 7.6 12.752 8.64 8.64 0 0 0 7.956-12.014 1.647 1.647 0 0 0-.904-.017c-.197.053-.375.14-.531.254a.415.415 0 0 1-.484 0 1.61 1.61 0 0 0-1.12-.3.415.415 0 0 1-.418-.242 1.617 1.617 0 0 0-.82-.82.415.415 0 0 1-.242-.419 1.617 1.617 0 0 0-.3-1.119.415.415 0 0 1 0-.484c.114-.156.201-.334.254-.531a1.645 1.645 0 0 0-.017-.904 8.608 8.608 0 0 0-3.374-.684c-1.973 0-3.79.661-5.245 1.773M30.15 65.335c-.079.091-.157.184-.233.278l.234-.278z"/>
            <path stroke="#7C2F57" stroke-linecap="round" stroke-linejoin="round" stroke-width=".72" d="M36.64 73.632a2.592 2.592 0 1 1 0-5.184 2.592 2.592 0 0 1 0 5.184z"/>
            <path stroke="#FFD9B5" stroke-linecap="round" stroke-linejoin="round" stroke-width=".72" d="M42.402 71.255l-.546-.034M30.441 73.253l-.546-.034"/>
            <path stroke="#FFBDBD" stroke-linecap="round" stroke-linejoin="round" stroke-width=".72" d="M37.599 66.261l-.235.495"/>
            <path stroke="#B1E7FF" stroke-linecap="round" stroke-linejoin="round" stroke-width=".72" d="M40.926 75.088l-.049-.545"/>
            <path stroke="#B2FCE3" stroke-linecap="round" stroke-linejoin="round" stroke-width=".72" d="M32.825 69.313l-.371.403M38.495 75.874l-.371.403"/>
            <path stroke="#77E2DD" stroke-linecap="round" stroke-linejoin="round" stroke-width=".72" d="M34.579 65.72l-.369-.404"/>
            <path stroke="#FEF8DE" stroke-linecap="round" stroke-linejoin="round" stroke-width=".72" d="M30.473 68.239l-.041-.546M42.218 69.184l-.041-.546"/>
            <path stroke="#FFF" stroke-linecap="round" stroke-linejoin="round" stroke-width=".72" d="M32.428 73.173l.387.387"/>
            <path stroke="#76DDAC" stroke-linecap="round" stroke-linejoin="round" stroke-width=".72" d="M35.389 76.197l-.528-.145"/>
            <path stroke="#000" stroke-width="1.26" d="M107.304 61.512c-4.45-.41-10.274.093-13.346.425-.855.093-1.5.171-1.842.22-.18.02-.278.034-.278.034-.69-1.466-3.151-2.516-6.21-2.726-2.232-.151-4.025-.058-5.295.078-.972.108-1.637.24-1.954.313-.147.034-.22.054-.22.054.132-3.962-1.793-6.512-3.365-7.929-1.06-.957-1.964-1.392-1.964-1.392s1.367-1.065 2.628-2.594c.122-.147.244-.303.361-.46 1.363-1.792 1.241-3.238 3.054-5.74.977-1.65.244-2.706-2.013-2.726a16.34 16.34 0 0 0-1.808.098c-2.095.206-4.538.714-5.705 1.1-1.525.513-2.99 2.017-3.562 2.71-.024-.019-.044-.043-.068-.063-1.749-1.65-3.991-2.442-6.107-2.76-2.442-.366-4.395-.097-5.558.215-1.27-.18-3.135.078-4.395.718v.005c-1.98.572-3.577 1.451-5.13 2.6-1.744 1.289-3.491 2.916-4.635 4.82-.732 1.466-1.486 1.158-1.975 2.624-.518 1.563-.04 2.198.224 3.239 0 0-1.036 1.016-1.974 2.281-.415.567-.796 1.539-1.08 2.438a26.944 26.944 0 0 0-.561 2.12s.022.015.07.034c.474.205 3.213 1.236 7.092-.684 2.443 3.215 4.924 4.153 7.161 4.23.176.006.352.01.527.006 2.023-.025 4.216-.674 6.693-2.711.03-.02.063-.05.093-.074.078-.063.2-.024.22.074.205 1.333.053 2.838-.43 4.391-1.417 4.626-5.73 9.668-12.047 11.847a.28.28 0 0 1-.083.029c-.166.058-.337.112-.508.166-.323.102-.645.195-.977.278.742 1.07 2.726 1.315 4.108 1.344.82.02 1.426-.04 1.426-.04s.171.949.64 2.12c.704 1.784 2.091 4.1 4.573 4.393.03.048.054.102.078.151.4.752.68 1.598.855 2.501.899 4.568-.786 10.6-2.804 13.224-.909 1.182-5.095 4.832-8.08 7.797-1.588 1.578-2.838 2.96-3.078 3.683-.689 2.076 1.573 3.947 3.464 4.03 2.809.122 3.786-.976 6.228-2.686 1.007-.709 5.936-6.527 10.02-10.62 2.115-2.125 4-3.787 5.002-4.036 0 0 1.07 1.432 3.889 3 2.54 1.402 6.492 2.921 12.354 3.595 11.974 1.383 33.366-9.135 38.387-12.212.171-.103.318-.196.45-.284 10.503 5.535 23.649 2.931 29.96 5.208 4.035 1.46 6.37 5.461 7.87 8.402.85 1.66 1.431 2.985 1.9 3.322 1.305.938 3.337-.2 3.908-.977.572-.772.816-2.726.328-5.208-1.143-.38-3.151-2.76-4.954-5.178-2.047-2.735-3.84-5.53-3.84-5.53s-4.64-1.465-6.189-4.602c-1.5-3.038-5.618-11.357-9.12-14.977a17.975 17.975 0 0 0-.806-.782c-3.874-3.576-11.476-8.285-11.896-8.666-.083-.078-.146-.318-.195-.66"/>
            <path stroke="#000" stroke-linecap="round" stroke-width=".733" d="M38.101 54.375s3.708-1.192 7.338-.435c3.63.757 5.852 4.01 6.61 4.118.756.108 4.626-1.602 7.259.108 1.426.923 1.836 2.457 1.817 3.615-.01.464-.088.87-.196 1.153"/>
            <path stroke="#000" stroke-linecap="round" stroke-width=".6" d="M47.407 80.05h.46c.136 0 .713-.058 1.578-.283 1.323-.356 3.168-1.253 4.877-3.52"/>
            <path stroke="#000" stroke-width=".977" d="M126.81 65.425c0-.107 0-.21.005-.313.073-3.59 1.417-5.676.298-10.434-.474-2.008-2.164-4.73-4.993-6.35-.669-.392-1.397-.714-2.193-.953a10.919 10.919 0 0 0-3.498-.45c-6.263.18-10.503 5.007-10.322 10.381.005.117.01.23.02.342.097 1.46.517 2.76 1.177 3.864 1.67 2.8 4.914 4.358 8.554 4.26 3.268-.088 5.266-1.392 6.497-2.775.776-.86 1.246-1.754 1.539-2.398.092-.2.17-.382.23-.523.434-1.036.273-1.808-.191-2.14-.484-.352-1.3-.22-2.091.591-1.202 1.231-2.58 1.984-4.235 1.886a4.017 4.017 0 0 1-.528-.054c-.884-.146-1.568-.654-2.013-1.329-.005-.005-.01-.01-.01-.014"/>
            <path fill="#000" d="M70.711 49.083c-.036 0 .01-.006-.026-.017-2.587-.803-2.578-4.426-2.578-4.58v-.046l-.071-.045c.047-.193 1.205-4.734 8.817-5.69.206-.025.364.117.39.317a.374.374 0 0 1-.33.41c-6.73.846-8.095 4.65-8.231 5.095.017.41.206 3.24 2.14 3.839a.366.366 0 0 1-.111.717M76.747 66.116a.366.366 0 0 1-.341-.5c1.26-3.254 1.387-5.48 1.389-5.504.009-.196.171-.132.365-.132h.018c.202 0 .358-.037.349.165-.005.104-.132 2.47-1.438 5.845-.057.146-.195.126-.342.126M91.48 66.55a.365.365 0 0 1-.334-.517c.896-1.993.425-3.456.42-3.47a.368.368 0 0 1 .23-.464.369.369 0 0 1 .464.227c.024.07.577 1.734-.446 4.007a.365.365 0 0 1-.334.216M45.927 54.24a.245.245 0 0 1-.243-.221c-.276-2.875 1.344-11.863 8.761-13.844a.245.245 0 0 1 .126.472c-7.18 1.917-8.63 10.942-8.4 13.325a.244.244 0 0 1-.22.267h-.024"/>
            <path fill="#E6D5BA" d="M58.656 90.557c-.109.27-.921 6.663-4.55 9.75-3.63 3.087-12.025 6.933-14.191 7.15-2.167.216-3.305-.921-4.821 1.083-1.517 2.004.51 4.7 1.787 5.254 1.625.704 3.575.813 5.742.163.085-.026 18.524-9.425 27.733-10.833 2.925-8.288 5.741-10.78 5.741-10.78"/>
            <path fill="#000" d="M39.84 114.874a7.892 7.892 0 0 1-3.153-.632c-.925-.4-2.111-1.687-2.495-3.147-.277-1.055-.1-2.04.512-2.85 1.206-1.593 2.31-1.465 3.475-1.332.519.06 1.054.122 1.687.058 1.96-.196 10.258-3.918 13.924-7.036 2.03-1.729 3.482-4.798 4.313-9.122.055-.287.07-.364.1-.438a.488.488 0 1 1 .916.34c-.013.047-.03.144-.057.282-.873 4.548-2.434 7.806-4.64 9.682-3.644 3.1-12.126 7.03-14.459 7.264-.738.073-1.353.003-1.895-.06-1.11-.127-1.716-.196-2.584.952-.432.57-.548 1.246-.347 2.012.321 1.222 1.332 2.236 1.939 2.499 1.565.679 3.422.73 5.372.153l.218-.108c5.63-2.8 19.456-9.391 27.326-10.704 2.899-8.094 5.664-10.605 5.781-10.708a.488.488 0 1 1 .647.731c-.025.024-2.771 2.55-5.604 10.576l-.097.276-.29.044c-7.896 1.208-22.913 8.465-27.328 10.66-.212.105-.33.156-.337.158-1 .3-1.982.45-2.924.45M53.423 86.887c-.285 0-.46-.028-.48-.031a.367.367 0 0 1 .118-.723c.017.003 1.363.2 2.841-.723a.366.366 0 1 1 .388.622c-1.171.732-2.265.855-2.867.855"/>
            <path fill="#29231B" d="M42.908 56.242c-.842-.184-.504 1.426-.795 1.343-.23-.065-.564-1.263-.536-2.073.294-.21 3.24-2.114 6.094 1.307-.37 1.281-1.926 2.067-2.37 1.772-.312-.206.828-1.765-.046-1.71-.87.062-.312 1.72-.873 1.743-.776.032-1.508-.268-1.636-.497-.13-.236.932-1.716.162-1.885"/>
            <path fill="#3B3227" d="M47.671 56.819c-2.854-3.42-5.8-1.518-6.094-1.307 0-.229.035-.427.108-.558.332-.612 1.879-1.349 3.526-.803 1.646.551 2.668 1.94 2.46 2.668"/>
            <path stroke="#000" stroke-width=".6" d="M41.577 55.512c0-.229.035-.427.109-.558.331-.612 1.878-1.35 3.525-.803 1.646.551 2.668 1.94 2.46 2.668-.37 1.28-1.926 2.067-2.37 1.772-.312-.206.829-1.765-.046-1.71-.87.062-.312 1.72-.873 1.743-.776.032-1.508-.268-1.636-.497-.13-.236.932-1.716.162-1.885-.842-.184-.504 1.426-.795 1.343-.23-.065-.564-1.263-.536-2.073z"/>
            <path fill="#000" d="M47.152 61.62a.093.093 0 0 0-.093.093c0 .103.186.103.186 0a.093.093 0 0 0-.093-.093m0 .489a.396.396 0 1 1 .001-.792.396.396 0 0 1 0 .792M36.893 59.666a.093.093 0 0 0-.093.093c0 .103.187.103.187 0a.093.093 0 0 0-.094-.093m0 .489a.396.396 0 1 1 .001-.792.396.396 0 0 1 0 .792M52.037 61.62a.093.093 0 0 0-.093.093c0 .103.186.103.186 0a.093.093 0 0 0-.093-.093m0 .489a.396.396 0 1 1 .001-.792.396.396 0 0 1 0 .792M49.595 58.69a.093.093 0 0 0-.094.092c0 .103.187.103.187 0a.093.093 0 0 0-.093-.093m0 .489a.396.396 0 1 1 0-.792.396.396 0 0 1 0 .792M40.313 58.69a.093.093 0 0 0-.093.092c0 .103.186.103.186 0a.093.093 0 0 0-.093-.093m0 .489a.396.396 0 1 1 .001-.792.396.396 0 0 1-.001.792M54.48 59.666a.093.093 0 0 0-.094.093c0 .103.187.103.187 0a.093.093 0 0 0-.093-.093m0 .489a.396.396 0 1 1 0-.792.396.396 0 0 1 0 .792M38.359 56.735a.093.093 0 0 0-.094.093c0 .103.187.103.187 0a.093.093 0 0 0-.093-.093m0 .489a.396.396 0 1 1 .001-.792.396.396 0 0 1-.001.792"/>
            <path fill="#FFF" d="M44.413 51.472c-.796 1.852-6.048 2.388-7.166 1.128h-.079c.044-2.88 1.725-3.956 3.786-3.956a3.79 3.79 0 0 1 3.65 2.77l-.191.058z"/>
            <path fill="#D1D3D4" d="M37.246 52.6c1.12 1.26 6.37.724 7.167-1.127l.19-.186c.088.323.137.601.137.953 0 .572-.132 1.082-.361 1.57-3.254-.37-6.278.58-6.278.58s-.249.027-.351.08c-.484-.634-.963-1.434-.963-2.293v.423h.46zM58.296 55.23c0 .845-.263 1.631-.708 2.281-2.36-.43-4.934.635-5.54.547-.278-.039-.757-.503-1.426-1.113a4.06 4.06 0 0 1-.376-1.456l.17-.015c1.608 1.524 7.084 1.793 7.636-1.304l.093-.025c.098.342.151.709.151 1.085"/>
            <path fill="#FFF" d="M50.236 55.23a4.028 4.028 0 0 1 7.909-1.085l-.093.025c-.552 3.097-6.028 2.828-7.635 1.304l-.171.015a4.441 4.441 0 0 1-.01-.26"/>
            <path fill="#BDAF99" d="M70.019 102.696c-8.343-1.022-33.17 14.28-32.873 5.13 0 0-.936-.142-1.628.773-1.386 1.832.42 4.278 1.587 4.784 1.485.643 3.33.716 5.31.122.078-.023 19.17-9.522 27.583-10.809"/>
            <path fill="#000" d="M35.193 109.66s.137-.284.312-.256c.18.028.416-.063.637.025.222.085.425.138.557.25.066.055.116.069.148.107.033.036.052.04.052.04s-.025-.023-.068-.046a1.101 1.101 0 0 0-.181-.085 1.843 1.843 0 0 0-.572-.103 2.612 2.612 0 0 0-.803.115.32.32 0 0 1-.413-.182c-.064-.165.018-.064.182-.128.038-.015.077.263.116.263h.033zM41.227 51.13a.642.642 0 1 0 .002 1.285.642.642 0 0 0-.002-1.284"/>
            <path stroke="#000" stroke-linecap="round" stroke-linejoin="round" stroke-width=".6" d="M37.057 52.094v.083c0 .86.344 1.65.828 2.286.102-.054.189-.088.189-.088s3.037-.967 6.29-.596a3.764 3.764 0 0 0 .236-2.619c-.445-1.597-1.964-2.77-3.703-2.77-2.061 0-3.84 1.652-3.84 3.704z"/>
            <path fill="#000" d="M54.295 54.527a.642.642 0 1 0 .001 1.284.642.642 0 0 0-.001-1.284"/>
            <path stroke="#000" stroke-linecap="round" stroke-linejoin="round" stroke-width=".6" d="M50.246 55.489c.034.518.166 1.006.376 1.456.67.61 1.148 1.074 1.426 1.113.606.088 3.18-.977 5.54-.547.445-.65.708-1.436.708-2.281 0-.376-.053-.743-.151-1.085a4.03 4.03 0 0 0-7.91 1.085c0 .088.006.17.01.259z"/>
        </g>
        <g fill-rule="nonzero" mask="url(#b)">
            <path fill="#FF0" d="M47.468 26.831c0 3.91-3.034 7.08-6.778 7.08-3.743 0-6.778-3.17-6.778-7.08s3.035-7.08 6.778-7.08c3.744 0 6.778 3.17 6.778 7.08z"/>
            <path fill="#F60" d="M42.951 26.985a1.045 1.045 0 0 0-.53.137c-.261.146-.418.39-.514.656-.097-.052-.194-.106-.299-.137a1.13 1.13 0 0 0-.881.085c-.283.16-.455.426-.54.715-.02.07-.024.143-.036.215a1.16 1.16 0 0 0-.757.16c-.666.399-.871 1.153-.625 1.798.246.644.934 1.18 1.97 1.216.659.022 1.235.607 1.643 1.22.125.187.232.372.322.542.1-.032.198-.07.296-.107a6.582 6.582 0 0 0-.358-.608c-.43-.647-1.063-1.331-1.892-1.36-.937-.031-1.493-.495-1.691-1.014-.199-.52-.05-1.091.494-1.418a.83.83 0 0 1 .566-.127c-.001.128.004.254.022.378.045.29.14.56.27.757.066.099.14.179.234.234.095.056.216.08.329.043a.406.406 0 0 0 .237-.225c.043-.098.052-.205.043-.315a1.391 1.391 0 0 0-.27-.677 1.317 1.317 0 0 0-.527-.42c.01-.068.01-.14.03-.204.067-.232.192-.42.393-.533a.802.802 0 0 1 .64-.056c.106.032.211.082.312.144-.038.223-.053.45-.026.66.037.284.118.535.257.705.07.085.162.157.28.17a.41.41 0 0 0 .325-.134c.184-.184.207-.455.133-.699a1.68 1.68 0 0 0-.442-.69c-.057-.055-.125-.1-.188-.149v-.006c.074-.24.203-.438.403-.55a.646.646 0 0 1 .572-.055c.18.066.354.217.491.429.274.424.392 1.09.166 1.74v.003c-.265.767-.035 1.807.24 2.673.079.244.157.458.231.653a6.78 6.78 0 0 0 .264-.178 12.19 12.19 0 0 1-.195-.57c-.268-.84-.46-1.853-.244-2.477v-.004c.258-.742.133-1.496-.198-2.01-.166-.256-.385-.456-.644-.552a.951.951 0 0 0-.306-.059zm-.842 1.313c.009.009.02.014.03.023.176.174.31.38.363.556.053.176.033.299-.055.387-.046.046-.062.043-.072.042-.009 0-.034-.01-.071-.055-.074-.09-.157-.301-.189-.546a1.991 1.991 0 0 1-.006-.407zm-1.668.771c.11.07.21.158.289.267.124.17.199.375.211.523a.356.356 0 0 1-.016.163c-.014.033-.023.043-.049.052-.023.008-.039.008-.074-.013a.459.459 0 0 1-.13-.14 1.67 1.67 0 0 1-.222-.63c-.01-.073-.006-.148-.01-.222z"/>
            <path fill="#4D4D4D" d="M45.03 35.248a1.235 1.235 0 0 0-.253.113l-.023.017c.094-.041.187-.084.277-.13zm1.327.543c-.477.496-1.191.886-2.01 1.076.305.482.974.615 1.51.293.499-.3.704-.89.5-1.37z"/>
            <path fill="#520" d="M46.694 33.488c-.295 1.068-1.655 2.016-3.167 2.24-.557.084-.993.005-1.314-.152-.075.529.361 1.573 1.753 1.366 2.103-.313 3.687-1.968 2.728-3.454z"/>
            <path fill="#333" d="M46.434 32.123c-.183 1.197-1.832 2.333-3.483 2.578-.62.093-1.071.04-1.398-.087-.072.514.574 1.323 1.973 1.115 2.148-.32 3.995-2.097 2.908-3.606z"/>
            <path fill="#1A1A1A" d="M46.148 31.023c-1.213 1.722-3.151 2.85-5.346 2.888.195.436.72 1.003 2.153.79 2.16-.321 4.32-2.163 3.193-3.678zM46.694 33.488c-.295 1.068-1.655 2.016-3.167 2.24-.557.084-.993.005-1.314-.152-.075.529.361 1.573 1.753 1.366 2.103-.313 3.687-1.968 2.728-3.454z"/>
            <path fill="#FFF" d="M38.202 32.46s-4.115-2.723-3.026-6.898c1.09-4.176 5.507-5.023 6.112-4.115.606.907-2.36 1.27-3.51 2.662s-2.844 3.994.424 8.352z"/>
            <path fill="#FF0" d="M34.515 35.365s-2.905 2.239-2.42 2.905c.483.665 2.42-2.905 2.42-2.905zM30.641 30.42s-3.338 1.52-3.018 2.279c.32.758 3.018-2.278 3.018-2.278zM28.58 25.994s-3.646.399-3.58 1.22c.067.82 3.58-1.22 3.58-1.22zM29.195 19.993s-2.949-2.18-3.457-1.533c-.507.648 3.457 1.533 3.457 1.533zM32.646 16.15s-1.449-3.369-2.214-3.065c-.764.304 2.214 3.065 2.214 3.065zM42.187 13.902s2.023-2.864 1.386-3.586c-.636-.723-1.386 3.586-1.386 3.586zM37.52 13.793s.212-3.5-.71-3.78c-.922-.278.71 3.78.71 3.78zM46.427 16.554s2.562-2.393 2.085-3.23c-.477-.837-2.085 3.23-2.085 3.23zM48.786 22.167s3.506-.03 3.72-.97c.215-.939-3.72.97-3.72.97zM49.37 28.165s3.194 1.445 3.783.684c.59-.762-3.783-.684-3.783-.684z"/>
        </g>
    </g>
</svg>
