<svg xmlns="http://www.w3.org/2000/svg" width="14" height="14" viewBox="0 0 14 14">
    <defs>
        <linearGradient id="a" x1="27.975%" x2="78.423%" y1="29.351%" y2="77.724%">
            <stop offset="0%" stop-color="#FF9695"/>
            <stop offset="100%" stop-color="#FF5C6C"/>
        </linearGradient>
    </defs>
    <g fill="none" fill-rule="evenodd">
        <path fill="#FFB56D" d="M7 8.8a1.8 1.8 0 1 1 0-3.6 1.8 1.8 0 0 1 0 3.6zm5.525-4.143a1.119 1.119 0 0 0-.997.164.288.288 0 0 1-.336 0 1.118 1.118 0 0 0-.777-.208.288.288 0 0 1-.29-.168 1.123 1.123 0 0 0-.57-.57.288.288 0 0 1-.168-.29 1.123 1.123 0 0 0-.208-.777.288.288 0 0 1 0-.336 1.119 1.119 0 0 0 .164-.997 6 6 0 1 0 3.182 3.182z"/>
        <path fill="url(#a)" d="M6 7.8a1.8 1.8 0 1 1 0-3.6 1.8 1.8 0 0 1 0 3.6m4.898-4.155c-.138.037-.261.098-.37.176a.288.288 0 0 1-.336 0 1.118 1.118 0 0 0-.777-.208.288.288 0 0 1-.29-.168 1.123 1.123 0 0 0-.57-.569.288.288 0 0 1-.168-.291 1.123 1.123 0 0 0-.208-.777.288.288 0 0 1 0-.336 1.119 1.119 0 0 0 .164-.996A5.992 5.992 0 0 0 5.702.007C2.653.155.17 2.626.009 5.674a5.995 5.995 0 0 0 2.737 5.367 2.373 2.373 0 0 0 2.365.133 1.704 1.704 0 0 1 1.319-.095 2.273 2.273 0 0 0 2.728-1.065c.17-.311.41-.578.724-.743a1.763 1.763 0 0 0 .939-1.685c-.026-.37.072-.738.306-1.027l.056-.071c.62-.808.715-1.89.339-2.832a1.143 1.143 0 0 0-.624-.011" transform="translate(1 1)"/>
        <path fill="#FFF" d="M8.477 5.973a1.8 1.8 0 0 1-2.504 2.504c-.023.436.281.626.59.76.219.096.608-.024.862-.024.249 0 .763.1 1.1-.45.12-.197.493-.397.584-.612.09-.216.078-.365.078-.614 0-.17.163-.5.113-.812-.067-.416-.375-.775-.823-.752M1.563 7.656c0-.599.174-1.367.337-1.912.153-.51.173-1.01.448-1.453.23-.371.617-.673.92-.985.428-.439.805-.854 1.35-1.147.394-.212.778-.214 1.22-.334.501-.136.992-.394 1.537-.394.68 0 1.406.488 2.017.342a1.17 1.17 0 0 0-.05-.298h.001a6 6 0 0 0-6.354 9.986c.149-.917-.544-1.054-.995-1.911-.337-.64-.431-1.235-.431-1.894"/>
        <path stroke="#7C2F57" stroke-linecap="round" stroke-linejoin="round" stroke-width=".5" d="M1.722 4.145a6 6 0 1 0 10.803.512 1.119 1.119 0 0 0-.997.164.288.288 0 0 1-.336 0 1.118 1.118 0 0 0-.777-.208.288.288 0 0 1-.29-.168 1.123 1.123 0 0 0-.57-.57.288.288 0 0 1-.168-.29 1.123 1.123 0 0 0-.208-.777.288.288 0 0 1 0-.336 1.119 1.119 0 0 0 .164-.997A5.978 5.978 0 0 0 7 1c-1.37 0-2.632.459-3.642 1.232M2.494 3.038c-.056.064-.11.128-.163.193l.163-.193z"/>
        <path stroke="#7C2F57" stroke-linecap="round" stroke-linejoin="round" stroke-width=".5" d="M7 8.8a1.8 1.8 0 1 1 0-3.6 1.8 1.8 0 0 1 0 3.6z"/>
        <path stroke="#FFD9B5" stroke-linecap="round" stroke-linejoin="round" stroke-width=".5" d="M11.002 7.15l-.38-.024M2.695 8.537l-.379-.024"/>
        <path stroke="#FFBDBD" stroke-linecap="round" stroke-linejoin="round" stroke-width=".5" d="M7.666 3.682l-.163.343"/>
        <path stroke="#B1E7FF" stroke-linecap="round" stroke-linejoin="round" stroke-width=".5" d="M9.977 9.811l-.035-.378"/>
        <path stroke="#B2FCE3" stroke-linecap="round" stroke-linejoin="round" stroke-width=".5" d="M4.351 5.801l-.258.279M8.288 10.357l-.258.28"/>
        <path stroke="#77E2DD" stroke-linecap="round" stroke-linejoin="round" stroke-width=".5" d="M5.569 3.306l-.256-.281"/>
        <path stroke="#FEF8DE" stroke-linecap="round" stroke-linejoin="round" stroke-width=".5" d="M2.717 5.055l-.028-.379M10.874 5.711l-.029-.379"/>
        <path stroke="#FFF" stroke-linecap="round" stroke-linejoin="round" stroke-width=".5" d="M4.075 8.481l.269.269"/>
        <path stroke="#76DDAC" stroke-linecap="round" stroke-linejoin="round" stroke-width=".5" d="M6.131 10.581l-.366-.1"/>
    </g>
</svg>
