<svg xmlns="http://www.w3.org/2000/svg" width="11" height="18" viewBox="0 0 11 18">
    <g fill="none" fill-rule="nonzero">
        <path fill="#8A92B2" d="M5.37.095v.008a.789.789 0 0 1 .01.147v6.216c-.01.034-.035.043-.061.06-.181.086-.353.164-.535.241-.25.112-.508.233-.758.345l-.905.414c-.25.112-.5.224-.742.336-.293.138-.595.267-.888.405-.25.112-.5.233-.758.345-.207.095-.414.181-.612.276a.123.123 0 0 1-.052.017c-.009 0-.009 0-.017-.008l.232-.388c.449-.742.888-1.475 1.337-2.216.474-.793.957-1.586 1.43-2.38.44-.732.889-1.465 1.328-2.197.32-.535.647-1.07.966-1.604.008-.017.017-.026.017-.043h.009c-.009.009 0 .017 0 .026z"/>
        <path fill="#454A75" d="M10.664 8.897l.008.008-1.267.75-3.983 2.354a.188.188 0 0 0-.043.025c-.026 0-.026-.025-.026-.034V6.595c0-.026 0-.06.01-.086.008-.035.034-.026.06-.018.111.052.232.104.344.156.336.155.673.31 1.009.456.293.13.577.268.87.397.294.13.587.267.88.397.25.112.508.232.758.344.25.112.51.233.76.345.197.086.396.181.594.267 0 .026.009.035.026.044z"/>
        <path fill="#8A92B2" d="M5.37 17.388c0 .009-.008.017-.008.026h-.009c0-.017-.017-.026-.025-.043-.535-.75-1.07-1.509-1.604-2.259l-1.638-2.31L.5 10.569c-.138-.198-.276-.388-.414-.586C.078 9.966.07 9.957.052 9.93c.026 0 .043.017.051.026.75.44 1.492.88 2.242 1.319.862.508 1.715 1.017 2.577 1.526l.44.258c.017.018.017.035.017.052v4.155c0 .043 0 .086-.008.12z"/>
        <path fill="gray" d="M.066 8.897h.041v.04H.026v-.04z"/>
        <path fill="#FFF" d="M5.403.159c-.04 0-.04-.04-.04-.081h.04v.08z"/>
        <path fill="#62688F" d="M.043 8.914v-.009c.276-.12.543-.25.82-.37.353-.164.706-.32 1.06-.483.267-.121.543-.25.81-.371.396-.181.784-.353 1.18-.534.268-.121.535-.242.811-.371l.578-.259c.017-.008.043-.017.051-.034.01 0 .01.008 0 .017v5.474c0 .026-.008.052.01.07-.018.025-.035 0-.044-.01-.078-.043-.155-.086-.233-.137-1.664-.983-3.336-1.975-5-2.957C.078 8.93.06 8.922.043 8.914zM10.647 9.93h.008c0 .017-.017.035-.026.052-1.586 2.233-3.172 4.474-4.758 6.707-.164.232-.337.465-.5.698-.009-.009-.009-.017-.009-.026v-4.31c.362-.216.716-.423 1.078-.638 1.396-.828 2.793-1.647 4.18-2.474.01.008.018 0 .027-.009z"/>
        <path fill="#62688F" d="M5.362 6.5V.172c0-.025-.009-.043.009-.069 1.75 2.906 3.5 5.802 5.241 8.707.017.026.043.06.052.095-.12-.043-.233-.103-.345-.155-.138-.06-.285-.13-.422-.19-.087-.043-.181-.077-.268-.12-.146-.07-.293-.13-.44-.199-.086-.034-.172-.077-.258-.12l-.569-.259c-.095-.043-.19-.086-.293-.13l-.414-.18a3.477 3.477 0 0 1-.258-.121l-.57-.259a9.829 9.829 0 0 0-.293-.129l-.413-.18c-.095-.044-.181-.087-.276-.13a8.786 8.786 0 0 0-.5-.224c.026-.009.017-.009.017-.009z"/>
    </g>
</svg>
