<svg viewBox="0 0 448 512" xmlns="http://www.w3.org/2000/svg"><path d="m436 192h-124c-13.3 0-24-10.7-24-24v-124c0-6.6 5.4-12 12-12h8c6.6 0 12 5.4 12 12v116h116c6.6 0 12 5.4 12 12v8c0 6.6-5.4 12-12 12zm-276-24v-124c0-6.6-5.4-12-12-12h-8c-6.6 0-12 5.4-12 12v116h-116c-6.6 0-12 5.4-12 12v8c0 6.6 5.4 12 12 12h124c13.3 0 24-10.7 24-24zm0 300v-124c0-13.3-10.7-24-24-24h-124c-6.6 0-12 5.4-12 12v8c0 6.6 5.4 12 12 12h116v116c0 6.6 5.4 12 12 12h8c6.6 0 12-5.4 12-12zm160 0v-116h116c6.6 0 12-5.4 12-12v-8c0-6.6-5.4-12-12-12h-124c-13.3 0-24 10.7-24 24v124c0 6.6 5.4 12 12 12h8c6.6 0 12-5.4 12-12z" fill="#fff"/></svg>