<svg xmlns="http://www.w3.org/2000/svg" width="18" height="18" viewBox="0 0 18 18">
    <path fill="#F2F2F9" fill-rule="evenodd" d="M17.416 12.536a.562.562 0 0 0-.562.562v3.286c0 .27-.22.492-.491.492h-3.279a.563.563 0 0 0 0 1.124h3.279c.89 0 1.615-.725 1.615-1.616v-3.286a.563.563 0 0 0-.562-.562M4.893 16.832H1.614a.492.492 0 0 1-.49-.492v-3.286a.562.562 0 1 0-1.124 0v3.286c0 .891.724 1.616 1.614 1.616h3.28a.562.562 0 1 0 0-1.124M4.915 0H1.637C.746 0 .022.725.022 1.617v3.285a.563.563 0 0 0 1.123 0V1.617c0-.272.22-.493.492-.493h3.279a.562.562 0 0 0 0-1.124M18 1.66v3.286a.563.563 0 0 1-1.123 0V1.66a.493.493 0 0 0-.492-.492h-3.278a.563.563 0 0 1 0-1.124h3.278C17.275.044 18 .77 18 1.66"/>
</svg>
