<svg xmlns="http://www.w3.org/2000/svg" width="27" height="18" viewBox="0 0 27 18">
    <path fill="#07DEE7" fill-rule="evenodd" d="M25.58 9l-8.995 7.63-.066-15.23L25.58 9zM15.186 1.37v15.26c0 .536.3 1.011.782 1.239a1.338 1.338 0 0 0 1.446-.188l9.097-7.63C26.82 9.789 27 9.407 27 9c0-.407-.178-.79-.49-1.05h.002l-9.1-7.631a1.333 1.333 0 0 0-1.444-.187c-.46.217-.756.66-.78 1.168l-.002.07zM1.397 9l8.996-7.63.066 15.23L1.397 9zm10.395 7.63V1.37c0-.537-.3-1.011-.782-1.238A1.338 1.338 0 0 0 9.563.32L.467 7.949c-.622.522-.622 1.58-.002 2.102l9.098 7.63c.41.344.964.415 1.446.188.461-.218.756-.662.781-1.17l.002-.069z"/>
</svg>
