<svg xmlns="http://www.w3.org/2000/svg" width="14" height="14" viewBox="0 0 14 14">
    <g fill="none" fill-rule="evenodd">
        <circle cx="7" cy="7" r="7" fill="#FC6F6F"/>
        <path fill="#FFF" fill-rule="nonzero" d="M5.012 10.522c.28 0 .506.22.506.49s-.227.488-.506.488a.498.498 0 0 1-.506-.489c0-.27.226-.489.506-.489zm3.982 0c.28 0 .506.22.506.49s-.227.488-.506.488a.498.498 0 0 1-.506-.489c0-.27.227-.489.506-.489zM4.997 2.5c.137 0 .255.047.352.14a.477.477 0 0 1 .15.345v2.218c.424-.318.923-.476 1.497-.476.335 0 .653.063.954.19.301.125.567.297.796.514.23.217.411.473.545.767.134.294.201.608.201.94v2.269a.477.477 0 0 1-.15.344.488.488 0 0 1-.352.14.488.488 0 0 1-.352-.14.46.46 0 0 1-.145-.344V7.138c0-.197-.04-.383-.12-.559a1.488 1.488 0 0 0-.798-.771 1.467 1.467 0 0 0-.579-.116c-.207 0-.4.038-.581.113-.18.076-.339.18-.476.312a1.463 1.463 0 0 0-.322.462 1.36 1.36 0 0 0-.118.56v2.268a.493.493 0 0 1-.502.485.488.488 0 0 1-.351-.141.46.46 0 0 1-.146-.344V2.985a.46.46 0 0 1 .146-.344.488.488 0 0 1 .351-.141z"/>
    </g>
</svg>
