<svg xmlns="http://www.w3.org/2000/svg" width="26" height="26" viewBox="0 0 26 26">
    <g fill="none" fill-rule="evenodd">
        <circle cx="13" cy="13" r="13" fill="#224081"/>
        <path fill="#07DEE7" d="M18.012 7.153a.49.49 0 0 1 .659-.048c3.105 3.266 3.105 8.531 0 11.749a.496.496 0 0 1-.33.146.5.5 0 0 1-.329-.146.484.484 0 0 1 0-.683c2.777-2.828 2.777-7.459 0-10.336a.484.484 0 0 1 0-.682zM7.33 7.152a.445.445 0 0 1 .659 0 .484.484 0 0 1 0 .682c-2.777 2.829-2.777 7.46 0 10.336a.484.484 0 0 1 0 .683.418.418 0 0 1-.33.146.5.5 0 0 1-.328-.146c-3.106-3.218-3.106-8.483-.001-11.701zM9.353 9.2a.445.445 0 0 1 .659 0 .544.544 0 0 1-.001.731c-1.647 1.706-1.647 4.485 0 6.191a.484.484 0 0 1 0 .683.496.496 0 0 1-.33.147.5.5 0 0 1-.328-.147c-2.023-2.096-2.023-5.509 0-7.605zm6.635 0a.445.445 0 0 1 .66 0c2.023 2.097 2.023 5.51-.002 7.557a.496.496 0 0 1-.329.146.5.5 0 0 1-.329-.146.484.484 0 0 1 0-.683c1.648-1.706 1.648-4.484 0-6.191a.484.484 0 0 1 0-.683zm-2.965 1.365a2.331 2.331 0 0 1 2.354 2.355 2.33 2.33 0 0 1-2.354 2.355 2.331 2.331 0 0 1-2.353-2.355 2.331 2.331 0 0 1 2.353-2.355zm0 .942c-.8 0-1.411.612-1.411 1.413 0 .8.612 1.413 1.411 1.413.8 0 1.412-.612 1.412-1.413s-.611-1.413-1.412-1.413z"/>
    </g>
</svg>
