<svg xmlns="http://www.w3.org/2000/svg" width="69" height="64" viewBox="0 0 69 64">
    <g fill="none" fill-rule="evenodd">
        <path fill="#FF54AE" d="M27.712 42.838l-6.686 1.742-.563-2.194 4.45-1.161-4.6-3.543 1.363-1.801 6.437 4.958c.342.264.504.7.42 1.127a1.141 1.141 0 0 1-.82.872zM46.88 35.88l-6.437 4.959c-.342.264-.504.7-.42 1.127.087.426.404.765.821.872l6.686 1.742.563-2.194-4.45-1.161 4.6-3.543-1.363-1.801zM40.656 47.765c.202.239.296.547.25.852-.406 2.777-2.443 6.026-6.843 6.035H34.035c-4.401-.009-6.438-3.254-6.843-6.035a1.073 1.073 0 0 1 .25-.852c.205-.239.5-.38.822-.393.928-.033 3.728-.045 5.842-.045 2.165 0 4.809.012 5.728.045.32.012.62.157.822.393z"/>
        <path fill="#FF54AE" d="M38.17 49.178c-1.075-.013-2.589-.02-4.292-.02-1.734 0-3.305.01-4.407.023.487 1.391 1.64 3.179 4.35 3.182 2.709-.003 3.862-1.79 4.349-3.185z"/>
        <path stroke="#07DEE7" stroke-width="3.84" d="M66.097 49.142c0 6.824-5.557 12.375-12.39 12.375l-39.313.003C7.56 61.52 2 55.969 2 49.145v-1.093c0-5.143 3.232-9.723 7.918-11.54a9.789 9.789 0 0 1-.873-4.054v-.84a9.822 9.822 0 0 1 7.967-9.68v-.05c0-3.612 2.329-6.912 6.393-9.063l.116-.062.174-.087c6.334-3.192 9.23-5.066 9.791-5.704.465-.532.954-1.202 1.425-1.846C36.186 3.379 37.193 2 38.586 2c.43 0 1.484.156 2.03 1.606.517 1.377.349 4.079-.5 8.04 5.555 1.842 9.09 5.7 9.16 10.112 5.401.052 9.778 4.458 9.778 9.863v.84c0 1.417-.296 2.79-.87 4.054 4.682 1.812 7.914 6.391 7.914 11.538v1.089z"/>
    </g>
</svg>
