<svg xmlns="http://www.w3.org/2000/svg" xmlns:xlink="http://www.w3.org/1999/xlink" width="28" height="30" viewBox="0 0 28 30">
    <defs>
        <path id="a" d="M19.375 15.366l16.667 13.333a1.664 1.664 0 0 1 0 2.602L19.375 44.636a1.672 1.672 0 0 1-1.763.2 1.667 1.667 0 0 1-.945-1.503V16.666a1.666 1.666 0 0 1 2.708-1.3zm22.292 1.3c.921 0 1.666.747 1.666 1.667v23.334c0 .921-.745 1.666-1.666 1.666A1.665 1.665 0 0 1 40 41.667V18.333c0-.92.745-1.666 1.667-1.666zM20 20.135v19.73L32.332 30 20 20.134z"/>
    </defs>
    <use fill="#07DEE7" fill-rule="evenodd" transform="matrix(-1 0 0 1 44 -15)" xlink:href="#a"/>
</svg>
