<svg xmlns="http://www.w3.org/2000/svg" width="14" height="14" viewBox="0 0 14 14">
    <g fill="none" fill-rule="nonzero">
        <path fill="#5C9DD5" d="M6.349 0c-.044.358-.065.662-.109.955-.14 1.01-.043 1.975.413 2.909.618 1.248 1.204 2.507 1.79 3.765.359.771.684 1.563.858 2.399.076.401.043.77-.152 1.129a9.316 9.316 0 0 1-2.258 2.615c-.086.065-.206.087-.303.13 0-.108-.011-.228.01-.325.12-.478.272-.955.38-1.444a2.855 2.855 0 0 0-.184-1.823c-.478-1.053-.977-2.105-1.465-3.158-.467-.999-.945-1.986-1.238-3.05-.151-.553-.26-1.118 0-1.66C4.558 1.476 5.274.727 6.143.109c.032-.044.086-.055.206-.109z"/>
        <path fill="#195199" d="M1.953 1.498c0 .108.011.184 0 .25-.086.618-.162 1.236-.043 1.855.054.26.141.521.25.77.488 1.053.998 2.084 1.465 3.137.26.597.456 1.226.662 1.856.097.293.043.597-.109.879-.456.803-1.063 1.476-1.78 2.062-.065.054-.151.087-.227.13-.022-.01-.033-.021-.055-.032.011-.098.022-.196.044-.283.097-.38.206-.76.293-1.14a2.26 2.26 0 0 0-.141-1.388c-.445-.966-.89-1.921-1.335-2.876C.629 5.969.293 5.23.109 4.438a1.68 1.68 0 0 1 .206-1.29 5.425 5.425 0 0 1 1.41-1.53c.055-.034.13-.066.228-.12zm8.889.043l-.065.564c-.076.543-.12 1.107.032 1.64.12.412.304.813.478 1.204.51 1.129 1.053 2.246 1.54 3.375.164.38.261.792.337 1.205.033.195 0 .434-.097.618-.434.869-1.086 1.563-1.845 2.17-.055.044-.13.066-.25.131.022-.141.022-.228.044-.315.108-.455.227-.9.325-1.356.087-.424 0-.836-.184-1.227-.445-.966-.901-1.931-1.346-2.897-.337-.727-.673-1.465-.847-2.258a1.662 1.662 0 0 1 .228-1.28c.358-.597.836-1.086 1.39-1.498.065-.043.13-.076.195-.108.032.021.043.032.065.032z"/>
    </g>
</svg>
