<svg xmlns="http://www.w3.org/2000/svg" width="23" height="16" viewBox="0 0 23 16">
    <g fill="none" fill-rule="nonzero">
        <path fill="#F00" d="M22.52 2.498A2.876 2.876 0 0 0 20.487.476C18.693 0 11.5 0 11.5 0S4.31 0 2.514.476A2.876 2.876 0 0 0 .479 2.498C0 4.28 0 8 0 8s0 3.72.48 5.502a2.876 2.876 0 0 0 2.034 2.022C4.31 16 11.5 16 11.5 16s7.193 0 8.986-.476a2.876 2.876 0 0 0 2.035-2.022C23 11.72 23 8 23 8s0-3.72-.48-5.502z"/>
        <path fill="#FFF" d="M9 11l6-3-6-3z"/>
    </g>
</svg>
